<?xml version="1.0" encoding="UTF-8"?>
<svg id="b" data-name="Слой 2" xmlns="http://www.w3.org/2000/svg" viewBox="0 0 855.89 947.02">
  <g id="c" data-name="Слой 1">
    <path d="M267.89,492.04c1.13-3.24,1.97-6.57,2.5-10,.67-138.33.67-276.67,0-415-.88-3.15-2.05-6.15-3.5-9,.31-1.24.81-1.24,1.5,0,2.13,3.73,3.47,7.73,4,12,.67,136.67.67,273.33,0,410-.33,4.65-1.66,8.98-4,13-.4-.23-.57-.56-.5-1Z" style="fill: #020202; fill-rule: evenodd;"/>
    <path d="M283.89,60.04c.65,1.59,1.15,3.25,1.5,5,.5,139.33.67,278.67.5,418-.83-137.83-1.33-275.83-1.5-414-.44-2.35-.94-4.68-1.5-7,.04-.92.38-1.58,1-2Z" style="fill-rule: evenodd;"/>
    <path d="M392.89,67.04c75.53-3.26,146.53,12.9,213,48.5,4.37,9.62,1.37,13.95-9,13-83.55-43.77-171.55-56.1-264-37-7.2,2.38-11.87.05-14-7,.7-3.1,2.37-5.43,5-7,22.88-5.23,45.88-8.73,69-10.5Z" style="fill: #101010; fill-rule: evenodd;"/>
    <path d="M235.89,85.04c8.01-.17,16.01,0,24,.5,6.08,2.94,6.41,6.27,1,10-8.67.67-17.33.67-26,0-3.81-1.39-4.81-3.89-3-7.5,1.4-1.02,2.73-2.02,4-3Z" style="fill: #161616; fill-rule: evenodd;"/>
    <path d="M234.89,101.04c8.67-.17,17.34,0,26,.5,5.41,3.73,5.08,7.06-1,10-9.08.91-18.08.58-27-1-2.76-3.89-2.09-7.06,2-9.5Z" style="fill: #151515; fill-rule: evenodd;"/>
    <path d="M234.89,117.04c8.67-.17,17.34,0,26,.5,4.87,2.48,5.2,5.48,1,9-9.33.67-18.67.67-28,0-4.14-3.62-3.8-6.79,1-9.5Z" style="fill: #0d0d0e; fill-rule: evenodd;"/>
    <path d="M473.89,210.04c32.16-.83,64.5-1.33,97-1.5-32.66-.5-65.33-.67-98-.5-1.33,40.33-1.33,80.67,0,121,33.01.33,66.01,0,99-1,1.31-4.2,1.31-8.36,0-12.5,1.12-1.04,2.46-1.71,4-2-.59-.46-1.26-.63-2-.5,3.72-1.91,7.72-3.24,12-4,.17,8.01,0,16.01-.5,24-1.06,3.06-2.89,5.56-5.5,7.5-15.57,1.47-31.24,1.97-47,1.5,4.24,12.07,12.58,19.91,25,23.5,24.95,1.29,49.95,1.96,75,2,21.57,5.23,34.73,18.73,39.5,40.5.67,8,.67,16,0,24-.47,1.43-1.3,2.6-2.5,3.5-3.49,1-6.66.5-9.5-1.5-1.26-6.89-1.93-13.89-2-21-2.25-16.06-11.08-26.23-26.5-30.5-23.33-.33-46.67-.67-70-1-22.85-3.69-37.85-16.52-45-38.5-16.32-.83-32.66-1.33-49-1.5-2.46-1.46-4.63-3.29-6.5-5.5-1.65-44.27-1.98-88.61-1-133,1.28-3.74,3.78-6.24,7.5-7.5,37.39-.98,74.73-.65,112,1,2.61,1.94,4.44,4.44,5.5,7.5.83,16.68.67,33.34-.5,50-4.58,2.54-9.08,5.21-13.5,8-.5-17.33-.67-34.66-.5-52h-97Z" style="fill: #0f0f0f; fill-rule: evenodd;"/>
    <path d="M473.89,210.04v118h97c-.17-4.68,0-9.34.5-14,.67-.75,1.5-1.09,2.5-1,.74-.13,1.41.04,2,.5-1.54.29-2.88.96-4,2,1.31,4.14,1.31,8.3,0,12.5-32.99,1-65.99,1.33-99,1-1.33-40.33-1.33-80.67,0-121,32.67-.17,65.34,0,98,.5-32.5.17-64.84.67-97,1.5Z" style="fill-rule: evenodd;"/>
    <path d="M225.89,230.04c9.75-.42,19.41.08,29,1.5,9.82,7.21,10.48,15.21,2,24-1.59.86-3.25,1.53-5,2-8.67.67-17.33.67-26,0-8.17-2.52-11.67-8.02-10.5-16.5,1.66-5.49,5.16-9.16,10.5-11Z" style="fill: #0f0f0f; fill-rule: evenodd;"/>
    <path d="M844.89,156.54c-10.67,10.34-21,21-31,32-2.17,1.59-4.5,2.92-7,4-13.25,3.65-26.59,6.98-40,10-17.24,6.08-34.24,12.74-51,20-4.28.96-8.28.3-12-2-5.55-6.29-5.22-12.29,1-18,18.21-9.27,36.54-18.27,55-27,4.86-4.04,5.2-8.37,1-13-7.13-.03-13.63,2.13-19.5,6.5-5.59-9.51-10.92-19.17-16-29-3.17-4.03-7-4.87-11.5-2.5-10.83,9.5-21.67,19-32.5,28.5-.86,1.59-1.53,3.25-2,5l-3,33c-1,.67-2,1.33-3,2-2.49-4.5-6.33-6.83-11.5-7,1.09-13.67,2.26-27.33,3.5-41,.47-1.75,1.14-3.41,2-5,14.78-14.78,29.61-29.61,44.5-44.5,1.33-.67,2.67-1.33,4-2,24.33-.33,48.67-.67,73-1,5.46-.36,10.79-1.36,16-3,12.78-6.47,24.61-14.3,35.5-23.5,3.31-8.39.48-12.39-8.5-12-8.49,6.3-17.15,12.47-26,18.5-3.45,1.93-7.11,3.26-11,4-25,.33-50,.67-75,1-4.15.38-8.15,1.38-12,3-17.44,15.44-34.27,31.6-50.5,48.5-2.8,3.94-4.8,8.28-6,13-1.03,15.72-2.53,31.39-4.5,47-4.32,1.82-6.99,4.98-8,9.5,1.51,5.69,3.84,11.02,7,16-25.83,14.41-51.5,29.08-77,44-4.63,4.1-6.97,9.27-7,15.5-9.21,5.03-18.54,9.87-28,14.5-1.2.9-2.03,2.07-2.5,3.5-2.04,5.93-.04,9.26,6,10,11.11-4.64,21.94-9.97,32.5-16,3.67,3.5,8,4.67,13,3.5,26.73-13.12,53.23-26.62,79.5-40.5,2.14,3.44,4.64,6.61,7.5,9.5,9.41,1.41,17.58-1.43,24.5-8.5,2.21-6.2,1.71-12.2-1.5-18,3.61-2.39,7.45-4.39,11.5-6,5.24,3.71,10.41,7.54,15.5,11.5,15.83,9.56,28.83,6.72,39-8.5,1.29.6,2.63,1.1,4,1.5,21.81,0,30.81-10.82,27-32.5,12.17-.62,23.17-4.45,33-11.5,10.5-11.17,21-22.33,31.5-33.5.78-1.23,1.28-2.56,1.5-4-1.66-5.94-5.33-7.77-11-5.5ZM655.89,250.04c-25.21,12.52-50.38,25.19-75.5,38-4.8-2.88-4.63-5.38.5-7.5,23.56-12.94,46.89-26.11,70-39.5,2.28,1.83,4.11,4.16,5.5,7,.69.83.52,1.5-.5,2ZM676.39,256.04c-7.17-13.67-14.33-27.33-21.5-41,.36-.68.7-1.35,1-2,2.22-.32,4.06.34,5.5,2,6.83,13,13.67,26,20.5,39-1.4,2.3-3.23,2.96-5.5,2ZM686.89,232.04c-2.46-4.09-4.79-8.25-7-12.5,1.07-.85,2.07-1.69,3-2.5h3c.81,4.45,2.81,8.28,6,11.5-1.67,1.17-3.33,2.33-5,3.5ZM690.89,194.54c.88-7.2,2.04-14.37,3.5-21.5,7.52-6,14.69-12.33,21.5-19,.88-.13,1.54.2,2,1,3.52,6.69,6.68,13.36,9.5,20-12.84,5.66-25.01,12.16-36.5,19.5ZM733.89,241.54c-3.66-1.5-7-3.5-10-6,3.45-1.75,6.78-3.58,10-5.5,4.43.21,8.1,2.05,11,5.5-1.78,5.39-5.44,7.39-11,6ZM776.39,224.04c-2.43,4.7-6.26,6.53-11.5,5.5-3.5-1.92-6.84-4.08-10-6.5,5.23-2.74,10.57-5.07,16-7,5.7-.35,7.54,2.31,5.5,8Z" style="fill: #0f0f0f; fill-rule: evenodd;"/>
    <path d="M516.89,232.04c-11.48,3.31-19.31,10.64-23.5,22-2.7,14.93,2.47,26.1,15.5,33.5,19.31,6.35,32.81.18,40.5-18.5,2.59-23.92-8.24-36.25-32.5-37ZM533.39,270.04c-6.45,6.83-13.61,7.66-21.5,2.5-7.73-10.41-6.06-18.91,5-25.5,16.26.08,21.76,7.74,16.5,23Z" style="fill: #0e0e0f; fill-rule: evenodd;"/>
    <path d="M774.89,287.04c3.36-.43,6.2.57,8.5,3,43.67,86.39,57.51,177.23,41.5,272.5-3.96,3.35-7.8,3.18-11.5-.5-1.04-2.37-1.54-4.87-1.5-7.5,12.61-90.15-1.22-175.99-41.5-257.5-.92-4.48.58-7.82,4.5-10Z" style="fill: #0f0f0f; fill-rule: evenodd;"/>
    <path d="M336.89,298.04c21.34,5.39,42.67,10.89,64,16.5,5.42,2.02,7.26,5.85,5.5,11.5-12.54,14.21-24.71,28.71-36.5,43.5-9.93,3.07-13.76-.43-11.5-10.5,6.11-6.85,11.27-13.85,15.5-21-21.06,8.9-38.06,22.74-51,41.5-6.93,3.41-11.6,1.58-14-5.5,2.2-5.04,5.03-9.7,8.5-14,14.46-16.8,31.96-29.3,52.5-37.5-12.2-2.88-24.2-6.38-36-10.5-4.39-5.78-3.39-10.44,3-14Z" style="fill: #0f0f0f; fill-rule: evenodd;"/>
    <path d="M558.89,408.04c5.27-.95,8.77,1.05,10.5,6,16.12,46.07,15.12,91.73-3,137-18.75,38.25-47.92,65.25-87.5,81,12.38,3.68,24.71,7.51,37,11.5,4.15,4.62,3.81,8.96-1,13-2.33.67-4.67.67-7,0-19.39-5.46-38.73-11.13-58-17-5.32-2.45-6.82-6.28-4.5-11.5,13.83-17.17,27.67-34.33,41.5-51.5,9.18-3.33,13.02-.16,11.5,9.5-8.17,10.17-16.33,20.33-24.5,30.5,46.31-17.33,75.48-50.16,87.5-98.5,5.05-22.21,5.71-44.54,2-67-2.21-12.17-5.04-24.17-8.5-36-.3-3.34,1.03-5.68,4-7Z" style="fill: #0e0e0e; fill-rule: evenodd;"/>
    <path d="M3.89,462.04c2.36-.16,4.69,0,7,.5,1.83.5,3,1.67,3.5,3.5-3.14,85.78,18.19,164.78,64,237,1.33,7.67-1.84,11.17-9.5,10.5-1.43-.47-2.6-1.3-3.5-2.5C18.43,636.54-3.24,555.21.39,467.04c1-1.82,2.16-3.49,3.5-5Z" style="fill: #0f0f0f; fill-rule: evenodd;"/>
    <path d="M764.39,525.04l-2.5-2.5c-39.91-1.49-79.91-1.99-120-1.5-2.31,1.48-4.14,3.48-5.5,6-.67,26.67-.67,53.33,0,80,.78,1.79,1.95,3.29,3.5,4.5,37.94,1.65,75.94,1.98,114,1,3.4-.1,6.57-.93,9.5-2.5,1.65-28.25,1.98-56.58,1-85ZM750.89,598.04h-33c1.71-5.09,3.71-10.09,6-15-2.13-6.81-6.29-8.48-12.5-5-3.63,6.42-7.13,12.92-10.5,19.5-16.66.5-33.33.67-50,.5v-62h100v62Z" style="fill: #111; fill-rule: evenodd;"/>
    <path d="M688.89,547.04c19.91-2.97,37.08,2.36,51.5,16,2.17,8.17-1,11.67-9.5,10.5-16.23-14.22-33.9-16.22-53-6-2.63,1.63-4.96,3.63-7,6-7.47,2.2-11.31-.63-11.5-8.5,7.88-9.19,17.72-15.19,29.5-18Z" style="fill: #0f0f0f; fill-rule: evenodd;"/>
    <path d="M146.89,558.04c2.69-.16,5.35,0,8,.5,1.32,1.4.98,2.4-1,3-3.79.84-7.46.5-11-1,1.36-.93,2.69-1.77,4-2.5Z" style="fill: #f7f8f7; fill-rule: evenodd;"/>
    <path d="M284.39,69.04c-.44-2.35-.94-4.68-1.5-7,.04-.92.38-1.58,1-2-6.05-16.38-17.71-26.21-35-29.5-10-.33-20-.67-30-1-7.56-15.24-19.56-24.9-36-29C146.18-.43,109.52-.09,72.89,1.54c-21.79,7.47-34.62,22.63-38.5,45.5-.67,28.67-.67,57.33,0,86,.47,5.69,1.14,11.36,2,17,4.63,18.53,8.63,37.2,12,56,5.64,35.61,5.98,71.28,1,107-4.21,24.5-9.21,48.83-15,73-.67,32.33-.67,64.67,0,97,1.53,9.61,5.2,18.28,11,26,17.43,18.86,38.93,25.86,64.5,21-1.69,12.59,1.65,23.59,10,33-4.57,10.85-3.57,21.18,3,31-2.31,2.96-3.81,6.29-4.5,10-1.05,9.68.28,19.01,4,28,4.29,4.1,8.29,3.77,12-1-.17-6.71-1.01-13.38-2.5-20-.18-2.63.49-4.97,2-7,9.91,7.85,20.58,9.02,32,3.5,10.09-10.32,8.76-18.99-4-26-9.52-2.55-18.68-1.71-27.5,2.5-3.48-3.76-4.31-8.09-2.5-13,5.14,3.49,10.81,5.16,17,5,9.93.79,17.1-3.21,21.5-12,1.71-13.13-4.12-20.13-17.5-21-8.49.78-16.33,3.44-23.5,8-4.79-6.14-6.62-13.14-5.5-21,17.67.17,35.34,0,53-.5,7.41-.86,14.41-3.03,21-6.5,15.62,1.15,31.29,1.32,47,.5,22.8-4.3,36.47-17.8,41-40.5-.83-137.83-1.33-275.83-1.5-414ZM157.89,595.54c-1.27,1.22-2.77,2.05-4.5,2.5-2.49-1.11-4.99-2.11-7.5-3,3.94-1.38,7.94-1.21,12,.5ZM209.39,477.04c-1.31,18.13-10.47,30.29-27.5,36.5-33.96,1.63-67.96,1.97-102,1-14.76-4.43-24.6-13.93-29.5-28.5-1.63-32.63-1.96-65.29-1-98,4.82-21.63,9.49-43.29,14-65,5.85-39.67,5.85-79.33,0-119-4.98-22.6-9.65-45.27-14-68-.67-29.67-.67-59.33,0-89,3.85-16.34,13.68-27.01,29.5-32,33.67-.17,67.34,0,101,.5,13.63,3.63,22.8,12.13,27.5,25.5,1.63,33.29,1.96,66.63,1,100-6.54,26.72-11.54,53.72-15,81-3.52,33.74-2.85,67.41,2,101,4.67,23.35,9.34,46.68,14,70,.67,28,.67,56,0,84ZM270.39,482.04c-.53,3.43-1.37,6.76-2.5,10-9.13,13.95-22.13,19.62-39,17-5-.33-10-.67-15-1,5.96-8.72,9.46-18.39,10.5-29,.67-29.67.67-59.33,0-89-2.64-17.22-6.31-34.22-11-51-10.93-62.25-8.27-123.92,8-185,1.65-7.24,2.65-14.58,3-22,.78-29.02.62-58.02-.5-87,8.01-.17,16.01,0,24,.5,7.85,2.04,14.18,6.2,19,12.5,1.45,2.85,2.62,5.85,3.5,9,.67,138.33.67,276.67,0,415Z" style="fill: #0f100f; fill-rule: evenodd;"/>
    <path d="M694.89,628.04c-6.57,1.59-12.9,4.09-19,7.5-18.02,13.73-23.85,31.57-17.5,53.5,7.75,18.04,21.41,27.71,41,29,27.89-2.56,43.06-17.72,45.5-45.5-3.54-29.37-20.21-44.2-50-44.5ZM717.89,697.54c-15.24,8.73-29.07,6.89-41.5-5.5-10.31-16.34-8.15-30.84,6.5-43.5,3.98-2.16,7.98-3.99,12-5.5,3.35-.16,6.68,0,10,.5,2.44.04,4.44.87,6,2.5-8.75,11.82-17.25,23.82-25.5,36-.13,7.2,3.37,10.03,10.5,8.5,9.53-12.23,18.7-24.73,27.5-37.5,11.37,16.41,9.54,31.25-5.5,44.5Z" style="fill: #0f0f0f; fill-rule: evenodd;"/>
    <path d="M651.89,723.04c-10.4,3.08-16.07,10.08-17,21,1.65,11.65,8.32,18.32,20,20,12.69-1.35,19.69-8.35,21-21-2.23-13.56-10.23-20.23-24-20ZM658.89,748.54c-5.52,1.92-8.85.09-10-5.5.59-1.92,1.59-3.59,3-5,8.99-.84,11.32,2.67,7,10.5Z" style="fill: #0f1010; fill-rule: evenodd;"/>
    <path d="M831.39,664.04c-2.71-3.48-5.71-3.81-9-1-2.64,8.89-4.81,17.89-6.5,27-.28,2.51.55,4.51,2.5,6,.67,34,.67,68,0,102-2.89,13.88-11.05,23.05-24.5,27.5-12.42,3.37-23.92,1.54-34.5-5.5-6.1-8.29-8.6-17.62-7.5-28,6.34.17,12.67,0,19-.5,13.14-2.47,20.97-10.31,23.5-23.5.67-85,.67-170,0-255-2.83-12.17-10.33-19.67-22.5-22.5-47.67-.5-95.33-.67-143-.5-11.42,3.59-18.59,11.26-21.5,23-.67,85.67-.67,171.33,0,257,3.17,11.17,10.33,18.33,21.5,21.5,6.99.5,13.99.67,21,.5.48,16.35-6.86,27.51-22,33.5-23.52,3.49-38.02-6.34-43.5-29.5-.67-33-.67-66,0-99,2.11-1.6,3.61-3.6,4.5-6-2.01-9.04-4.18-18.04-6.5-27-3.79-4.24-7.13-3.91-10,1-3.12,9.47-4.79,19.14-5,29,.41.46.91.79,1.5,1,.83,34.66,1.33,69.33,1.5,104,.93,4.78,2.26,9.45,4,14,13.24,23.7,33.07,32.2,59.5,25.5,20.7-8.56,31.03-24.06,31-46.5h73c-2.14,15.43,2.2,28.6,13,39.5,13.58,10.25,28.58,12.91,45,8,19.28-5.61,31.44-18.11,36.5-37.5.33-34.67.67-69.33,1-104,2.51-1.69,4.01-4.03,4.5-7-2.32-8.96-4.49-17.96-6.5-27ZM750.39,746.04c-3.71,5.3-7.38,5.3-11,0-.98-3.27-.15-5.94,2.5-8,6.33-.83,9.16,1.83,8.5,8ZM737.89,724.54c-13.43,7.3-16.6,17.8-9.5,31.5,2.64,2.82,5.64,5.15,9,7,.5,4.65.67,9.32.5,14-36,.17-72,0-108-.5-3.44-1.1-5.94-3.27-7.5-6.5-1.66-84.61-1.99-169.28-1-254,1.6-5.09,4.77-8.76,9.5-11,46.67-.17,93.34,0,140,.5,4.17,1.5,7,4.33,8.5,8.5.67,84.67.67,169.33,0,254-1.44,3.77-3.94,6.61-7.5,8.5-6.66.5-13.33.67-20,.5v-15c6.65-1.82,10.82-6.15,12.5-13,1.37-19.23-7.47-27.4-26.5-24.5Z" style="fill: #0f0f0f; fill-rule: evenodd;"/>
    <path d="M390.89,815.04c48-.17,96,0,144,.5,6.23,4.17,6.56,8.84,1,14-48.67.67-97.33.67-146,0-2.87-1.39-4.2-3.73-4-7-.07-3.74,1.59-6.24,5-7.5Z" style="fill: #0d0d0d; fill-rule: evenodd;"/>
    <path d="M535.89,843.54c-51.33-.33-102.67-.67-154-1-8.94-1.62-16.44-5.78-22.5-12.5-5.92-10.17-11.59-20.51-17-31-3.17-4.5-7-8.33-11.5-11.5,3.18-12.63-1.15-21.63-13-27-16.69-7.1-33.19-14.6-49.5-22.5-8-19.33-16-38.67-24-58-2.12-4.74-4.62-9.24-7.5-13.5,14.03,2.86,27.03.19,39-8,8.91-8.34,15.41-18.17,19.5-29.5,6,2,12,4,18,6,2.41-.2,4.41-1.2,6-3,2.74-7.18.24-11.52-7.5-13,2.98-18.6-.85-35.6-11.5-51-12.09-12.64-26.92-18.31-44.5-17-18.16,3.48-31.49,13.48-40,30-2.95.65-5.95.81-9,.5-5.46,3.5-6.12,7.67-2,12.5,2.96,1.6,5.96,3.1,9,4.5-9.84,15.71-10.51,31.71-2,48-28.2-6.5-51.36,1.67-69.5,24.5-17.28,22.95-34.95,45.62-53,68-4.42,5.84-8.09,12.18-11,19-9.35,29.95-1.19,53.78,24.5,71.5,16.43,7.88,33.1,15.22,50,22-21.33.33-42.67.67-64,1-12.26,2.03-20.42,8.87-24.5,20.5-2.21,11.94-3.55,23.94-4,36,1.06,7.28,4.56,13.12,10.5,17.5,17.29,8.34,31.29,4.51,42-11.5,26.33-1.17,52.66-1.33,79-.5,1.5,4.8,3,9.63,4.5,14.5,4.71,9.29,12.21,15.12,22.5,17.5,26.9,3.08,40.73-8.75,41.5-35.5-5.62-28.42-11.62-56.75-18-85-4.83-11.5-13-19.67-24.5-24.5-10.83-4.55-21.49-9.38-32-14.5,6.67-10,13.33-20,20-30,3.23,6.13,6.73,12.13,10.5,18,3.87,4.35,8.37,7.85,13.5,10.5,23.33,7.33,46.67,14.67,70,22,3.67.67,7.33.67,11,0,5.06-1.54,9.73-3.54,14-6,2.54,2.2,4.71,4.7,6.5,7.5l12,24c7.32,11.32,17.49,18.82,30.5,22.5,53.97,1.64,107.97,1.97,162,1,1.83-.5,3-1.67,3.5-3.5,1.29-4.17.12-7.34-3.5-9.5ZM254.89,566.04c29.09-1.08,42.92,12.92,41.5,42-.36,1.92-1.19,3.59-2.5,5-21.9-8.02-43.57-16.52-65-25.5,5.58-11.1,14.25-18.26,26-21.5ZM227.89,604.04c16.82,5.66,33.49,11.83,50,18.5,1,6.36-.5,12.19-4.5,17.5-15.72,16.86-31.72,17.19-48,1-7.8-12.94-6.97-25.27,2.5-37ZM107.89,899.54c-4.64,4.31-8.98,8.98-13,14-6.68,5.13-12.85,4.63-18.5-1.5-.93-2.41-1.43-4.91-1.5-7.5.99-9.93,2.49-19.76,4.5-29.5,1.77-3.94,4.61-6.61,8.5-8,30.67-.17,61.34,0,92,.5,3,10.33,6,20.67,9,31-27,.33-54,.67-81,1ZM305.89,794.04c-23.77-7.2-47.44-14.7-71-22.5-4.88-3.21-8.71-7.38-11.5-12.5-8.91-18.16-18.08-36.16-27.5-54-3.75-3.87-7.42-3.87-11,0-1.06,2.6-1.23,5.27-.5,8,4.71,9.58,9.54,19.08,14.5,28.5-8.8,13.76-17.96,27.26-27.5,40.5-5.3-3.74-11.13-5.24-17.5-4.5-2.69,2.65-3.53,5.82-2.5,9.5,2.41,2.46,5.24,4.29,8.5,5.5,19.92,8.08,39.58,16.75,59,26,5.99,4.81,9.82,10.97,11.5,18.5,5.36,26.3,10.53,52.63,15.5,79-2.24,12.81-9.91,18.31-23,16.5-4.37-1.27-8.2-3.43-11.5-6.5-7.15-24.27-14.15-48.61-21-73-26.28-12.22-52.78-24.05-79.5-35.5-23.48-16.75-28.31-37.91-14.5-63.5,19-24.33,38-48.67,57-73,9.17-12.04,21-19.71,35.5-23,20.69-.46,34.86,8.87,42.5,28,8.23,21.62,17.4,42.79,27.5,63.5,18.67,8.67,37.33,17.33,56,26,4.14,9.56,1.14,15.72-9,18.5Z" style="fill: #0e0e0f; fill-rule: evenodd;"/>
    <path d="M294.89,865.04c2.03-.16,4.03,0,6,.5,5.45,4.06,11.45,7.06,18,9,72.67.33,145.33.67,218,1,5.63,5.49,4.97,10.15-2,14-60.9.83-121.74.66-182.5-.5-.59.98-.26,1.65,1,2,64.4,22.46,129.56,24.96,195.5,7.5,17.41-5.47,34.24-12.3,50.5-20.5,4.54.54,7.04,3.04,7.5,7.5.09,2.81-.91,5.15-3,7-48.94,25.16-100.94,36.16-156,33-55.34-3.08-107-18.42-155-46-4.37-5.59-3.71-10.43,2-14.5Z" style="fill: #101010; fill-rule: evenodd;"/>
  </g>
</svg>