<?xml version="1.0" encoding="UTF-8"?>
<svg id="b" data-name="Слой 2" xmlns="http://www.w3.org/2000/svg" viewBox="0 0 157.05 365.12">
  <g id="c" data-name="Слой 2">
    <path d="M117.17,42.28c0,.69.56,1.25,1.25,1.25h28.92c.69,0,1.25-.56,1.25-1.25s-.56-1.25-1.25-1.25h-28.92c-.69,0-1.25.56-1.25,1.25Z" style="fill: #fff;"/>
    <path d="M147.33,46.02h-28.92c-.69,0-1.25.56-1.25,1.25s.56,1.25,1.25,1.25h28.92c.69,0,1.25-.56,1.25-1.25s-.56-1.25-1.25-1.25Z" style="fill: #fff;"/>
    <path d="M147.33,51.5h-28.92c-.69,0-1.25.56-1.25,1.25s.56,1.25,1.25,1.25h28.92c.69,0,1.25-.56,1.25-1.25s-.56-1.25-1.25-1.25Z" style="fill: #fff;"/>
    <path d="M147.33,56.99h-28.92c-.69,0-1.25.56-1.25,1.25s.56,1.25,1.25,1.25h28.92c.69,0,1.25-.56,1.25-1.25,0-.69-.56-1.25-1.25-1.25Z" style="fill: #fff;"/>
    <path d="M147.33,61.97h-28.92c-.69,0-1.25.56-1.25,1.25s.56,1.25,1.25,1.25h28.92c.69,0,1.25-.56,1.25-1.25s-.56-1.25-1.25-1.25Z" style="fill: #fff;"/>
    <path d="M147.33,66.96h-28.92c-.69,0-1.25.56-1.25,1.25s.56,1.25,1.25,1.25h28.92c.69,0,1.25-.56,1.25-1.25s-.56-1.25-1.25-1.25Z" style="fill: #fff;"/>
    <path d="M139.85,137.75h-14.46c-3.44,0-6.23,2.79-6.23,6.23s2.79,6.23,6.23,6.23h14.46c3.44,0,6.23-2.79,6.23-6.23,0-3.44-2.79-6.23-6.23-6.23Z" style="fill: #fff;"/>
    <path d="M123.35,8.14h-22.83C93.49,1.83,83.46-.73,72.41.18c-8.98.06-20.36-.06-28.77,0-9.77-.36-20.44,3.8-26.43,12.26C6.94,18.22,0,29.22,0,41.84v289.58c0,18.61,15.09,33.7,33.7,33.7h89.65c18.61,0,33.7-15.09,33.7-33.7V41.84c0-18.61-15.09-33.7-33.7-33.7ZM154.06,330.86c0,16.99-13.77,30.76-30.76,30.76H33.75c-16.99,0-30.76-13.77-30.76-30.76V41.39c0-9.58,4.38-18.13,11.24-23.78-2.93,6.32-3.46,12.81-3.26,20.46-.02,14.12.01,37.62,0,51.85.06,4.13-.23,8.55.54,11.75,1.62,6.83,3.64,13.85,4.95,20.86,7.46,36.64,5.52,76.45-4.71,112.4-.79,3.28-.8,5.23-.78,9.51-.01,15.75,0,46.14,0,57.7-.96,23.58,15.22,37.28,37.29,35.37,7.53,0,19.86,0,26.64,0,5.35.08,10.45-.08,15.6-1.94,15.61-5.5,21.22-20.74,20.13-37.13-.02-12.18.03-30.91-.01-40.77-.01-3.17-.53-5.69-1.42-8.7-7.01-22.26-10.99-45.45-11.22-69.89-.28-23.42,3.05-47.42,9.62-69.54,1.05-3.76,2.52-7.52,2.91-11.24.17-16.14.35-49.07-.08-69.23v-.07c-.85-7.7-3.51-13.79-7.48-18.37h20.34c16.99,0,30.76,13.77,30.76,30.76v289.47Z" style="fill: #fff;"/>
  </g>
</svg>