<?xml version="1.0" encoding="UTF-8"?>
<svg id="b" data-name="Слой 2" xmlns="http://www.w3.org/2000/svg" viewBox="0 0 175.94 243.81">
  <g id="c" data-name="Слой 2">
    <g>
      <circle cx="80.31" cy="162.97" r="59.3" transform="translate(-85.85 236.45) rotate(-87.62)" style="fill: #fff;"/>
      <path d="M101.02,56.9c.19-.04.38-.08.58-.11.45-.05.92-.06,1.37-.08.39-.02.77-.05,1.16-.11.16-.02.32-.03.49-.03.04-.06.09-.11.15-.15-8.73-16.72-3.75-37.34,11.97-47.27,16.58-10.47,38.78-5.04,49.59,12.09,10.82,17.13,6.16,39.49-10.42,49.95-2.73,1.72-5.62,3.03-8.64,3.91-.31.08-.61.17-.9.25-3.97,1.07-8.04,1.36-12.1,1.03-.57-.05-1.15-.11-1.72-.19-5.77-.79-11.33-3.02-16.21-6.52-.41-.06-.81-.13-1.22-.19-.12-.02-.24-.03-.36-.05-.06,0-.12-.01-.18-.02,0,0,0,0,0,0,0,0,0,0,0,0-.03,0-.05,0-.08,0-.24-.02-.49-.03-.73-.02-.09,0-.18-.03-.25-.07-.04,0-.09,0-.13,0-.26.02-.52.04-.78.06-.75.06-1.52.13-2.27.27,7.44,6.83,16.98,10.56,26.62,10.69.49,0,.98,0,1.47-.01,4.24-.11,11.42-1.98,11.42-1.98,2.81-.95,5.53-2.23,8.13-3.88,18.31-11.56,23.49-36.28,11.53-55.22-3.74-5.92-8.7-10.58-14.33-13.83-.01-.02-.04-.02-.06-.03-12.36-7.11-27.87-7.43-40.44.5-11.82,7.46-18.15,20.38-17.96,33.69.08,5.82,1.43,11.71,4.1,17.26.07,0,.14.02.21.07Z" style="fill: #fff;"/>
      <path d="M151.81,200.45c3.47-6.7,5.94-13.66,7.38-20.69,1.46-7.06,1.97-14.2,1.53-21.21l-1.8-47.3c.94-11-1.86-22-7.87-31.13-3.62,1.31-7.36,2.08-11.1,2.32,1.64,2.58,2.15,4.99,1.22,6.82-2.32,4.43-12.18,3.83-22.04-1.3-9.91-5.13-16.02-12.85-13.74-17.27.36-.68.9-1.24,1.61-1.69.52-.33,1.12-.59,1.79-.8,1.28-.28,2.51-.49,5.07-.4,1.19.07,2.47.27,3.81.56,3.04.69,6.38,1.88,9.74,3.62,1.23.63,2.42,1.31,3.51,2.02h.03c4.64.9,9.43.83,14.08-.3.28-.04.55-.11.84-.2-2.77-2.96-5.97-5.62-9.54-7.86-1.2-.76-2.42-1.47-3.7-2.13-7.92-4.1-16.47-5.87-24.81-5.49-.7.03-1.4.08-2.1.15l-3.98.52c-.44.07-.9.15-1.34.25-5.86,1.17-11.48,3.43-16.56,6.63-1.54.97-2.98,1.98-4.37,3.09l-7.95,5.15-28.19,18.22c-14.19,7.36-26.33,19.01-34.26,34.27-20.48,39.42-5.11,87.97,34.32,108.42,39.42,20.48,87.96,5.13,108.42-34.29ZM50.82,219.73c-31.35-16.28-43.56-54.89-27.27-86.23,8.04-15.48,21.49-26.28,36.82-31.31,15.8-5.16,33.53-4.23,49.42,4.02,14.63,7.6,25.1,20.07,30.42,34.4,6.11,16.35,5.54,35.12-3.13,51.84-16.29,31.34-54.88,43.57-86.26,27.29Z" style="fill: #fff;"/>
    </g>
  </g>
</svg>