<?xml version="1.0" encoding="UTF-8"?>
<!DOCTYPE svg PUBLIC "-//W3C//DTD SVG 1.1//EN" "http://www.w3.org/Graphics/SVG/1.1/DTD/svg11.dtd">
<svg xmlns="http://www.w3.org/2000/svg" version="1.1" width="500px" height="500px" style="shape-rendering:geometricPrecision; text-rendering:geometricPrecision; image-rendering:optimizeQuality; fill-rule:evenodd; clip-rule:evenodd" xmlns:xlink="http://www.w3.org/1999/xlink">
<g><path style="opacity:0.996" fill="#0b0b0b" d="M 155.5,55.5 C 155.987,56.4734 156.487,57.4734 157,58.5C 158.414,57.5868 159.914,57.5868 161.5,58.5C 161.833,59.5 162.5,60.1667 163.5,60.5C 166.783,64.1208 170.116,67.7875 173.5,71.5C 173.833,72.5 174.5,73.1667 175.5,73.5C 175.833,74.5 176.5,75.1667 177.5,75.5C 177.833,76.5 178.5,77.1667 179.5,77.5C 211.494,107.494 242.494,138.494 272.5,170.5C 272.833,171.5 273.5,172.167 274.5,172.5C 274.833,173.5 275.5,174.167 276.5,174.5C 279.167,176.5 281.5,178.833 283.5,181.5C 283.833,182.5 284.5,183.167 285.5,183.5C 285.833,184.5 286.5,185.167 287.5,185.5C 287.833,186.5 288.5,187.167 289.5,187.5C 292.167,189.5 294.5,191.833 296.5,194.5C 296.833,195.5 297.5,196.167 298.5,196.5C 298.833,197.5 299.5,198.167 300.5,198.5C 300.833,199.5 301.5,200.167 302.5,200.5C 302.833,201.5 303.5,202.167 304.5,202.5C 307.167,204.5 309.5,206.833 311.5,209.5C 311.833,210.5 312.5,211.167 313.5,211.5C 313.833,212.5 314.5,213.167 315.5,213.5C 315.833,214.5 316.5,215.167 317.5,215.5C 320.167,217.5 322.5,219.833 324.5,222.5C 324.833,223.5 325.5,224.167 326.5,224.5C 326.833,225.5 327.5,226.167 328.5,226.5C 328.833,227.5 329.5,228.167 330.5,228.5C 330.833,229.5 331.5,230.167 332.5,230.5C 335.591,232.922 337.924,235.922 339.5,239.5C 339.427,241.027 340.094,242.027 341.5,242.5C 342.038,244.117 342.371,245.784 342.5,247.5C 342.666,256.173 342.5,264.84 342,273.5C 341.329,272.748 340.496,272.414 339.5,272.5C 332.748,269.284 325.581,267.284 318,266.5C 312.125,267.673 306.292,269.007 300.5,270.5C 300.448,268.097 300.781,265.764 301.5,263.5C 303.074,261.898 303.741,259.898 303.5,257.5C 303.5,256.833 303.5,256.167 303.5,255.5C 304.947,254.866 305.613,253.699 305.5,252C 305.316,250.624 304.649,249.791 303.5,249.5C 303.573,247.973 302.906,246.973 301.5,246.5C 297.123,242.732 293.456,238.399 290.5,233.5C 290.167,232.5 289.5,231.833 288.5,231.5C 285.032,228.544 282.032,225.211 279.5,221.5C 279.5,220.167 278.833,219.5 277.5,219.5C 272.49,214.488 267.823,209.155 263.5,203.5C 262.833,200.833 261.167,199.167 258.5,198.5C 252.49,191.792 246.49,185.126 240.5,178.5C 240.5,177.167 239.833,176.5 238.5,176.5C 238.5,175.167 237.833,174.5 236.5,174.5C 228.436,165.774 220.769,156.774 213.5,147.5C 213.167,146.5 212.5,145.833 211.5,145.5C 211.167,144.5 210.5,143.833 209.5,143.5C 207.5,141.5 205.5,139.5 203.5,137.5C 203.5,136.167 202.833,135.5 201.5,135.5C 201.5,134.167 200.833,133.5 199.5,133.5C 196.484,130.48 193.817,127.146 191.5,123.5C 191.167,122.5 190.5,121.833 189.5,121.5C 183.796,116.406 178.796,110.739 174.5,104.5C 174.167,103.5 173.5,102.833 172.5,102.5C 169.548,100.215 166.882,97.5483 164.5,94.5C 164.289,92.5759 163.623,92.2426 162.5,93.5C 160.52,95.4514 158.187,96.9514 155.5,98C 151.514,98.4988 147.514,98.6655 143.5,98.5C 142.486,97.3263 141.153,96.6596 139.5,96.5C 133.942,95.2762 130.275,91.9428 128.5,86.5C 128.741,84.1016 128.074,82.1016 126.5,80.5C 124.931,74.7584 125.931,69.425 129.5,64.5C 130.5,64.1667 131.167,63.5 131.5,62.5C 133.778,58.7382 137.111,56.2382 141.5,55C 146.352,54.1849 151.019,54.3516 155.5,55.5 Z M 145.5,70.5 C 153.354,70.5184 155.687,74.0184 152.5,81C 147.21,83.5137 143.543,82.0137 141.5,76.5C 142.844,74.4714 144.177,72.4714 145.5,70.5 Z"/></g>
<g><path style="opacity:1" fill="#5f5f5f" d="M 155.5,55.5 C 157.967,55.7549 159.967,56.7549 161.5,58.5C 159.914,57.5868 158.414,57.5868 157,58.5C 156.487,57.4734 155.987,56.4734 155.5,55.5 Z"/></g>
<g><path style="opacity:0.004" fill="#d6d6d6" d="M 161.5,58.5 C 162.833,58.5 163.5,59.1667 163.5,60.5C 162.5,60.1667 161.833,59.5 161.5,58.5 Z"/></g>
<g><path style="opacity:0.09" fill="#c6c6c6" d="M 131.5,62.5 C 131.167,63.5 130.5,64.1667 129.5,64.5C 129.5,63.1667 130.167,62.5 131.5,62.5 Z"/></g>
<g><path style="opacity:0.004" fill="#cdcdcd" d="M 173.5,71.5 C 174.833,71.5 175.5,72.1667 175.5,73.5C 174.5,73.1667 173.833,72.5 173.5,71.5 Z"/></g>
<g><path style="opacity:0.004" fill="#cccccc" d="M 175.5,73.5 C 176.833,73.5 177.5,74.1667 177.5,75.5C 176.5,75.1667 175.833,74.5 175.5,73.5 Z"/></g>
<g><path style="opacity:0.004" fill="#c8c8c8" d="M 177.5,75.5 C 178.833,75.5 179.5,76.1667 179.5,77.5C 178.5,77.1667 177.833,76.5 177.5,75.5 Z"/></g>
<g><path style="opacity:0.753" fill="#5d5d5d" d="M 126.5,80.5 C 128.074,82.1016 128.741,84.1016 128.5,86.5C 126.926,84.8984 126.259,82.8984 126.5,80.5 Z"/></g>
<g><path style="opacity:0.286" fill="#b3b3b3" d="M 162.5,93.5 C 163.623,92.2426 164.289,92.5759 164.5,94.5C 163.833,94.1667 163.167,93.8333 162.5,93.5 Z"/></g>
<g><path style="opacity:0.118" fill="#aaaaaa" d="M 139.5,96.5 C 141.153,96.6596 142.486,97.3263 143.5,98.5C 141.62,98.7709 140.287,98.1042 139.5,96.5 Z"/></g>
<g><path style="opacity:0.997" fill="#0d0d0d" d="M 129.5,100.5 C 129.81,102.144 130.81,103.144 132.5,103.5C 139.25,106.082 146.25,107.415 153.5,107.5C 153.567,108.959 153.234,110.292 152.5,111.5C 150.787,112.635 150.12,114.302 150.5,116.5C 149.808,119.936 148.808,123.27 147.5,126.5C 145.896,127.287 145.229,128.62 145.5,130.5C 141.938,141.114 138.271,151.781 134.5,162.5C 133.069,163.78 132.402,165.447 132.5,167.5C 131.463,168.93 130.796,170.597 130.5,172.5C 126.616,184.005 122.782,195.672 119,207.5C 117.274,212.06 114.108,215.06 109.5,216.5C 108.873,217.417 108.539,218.417 108.5,219.5C 107.094,219.973 106.427,220.973 106.5,222.5C 102.664,234.154 98.6641,245.821 94.5,257.5C 92.7868,258.635 92.1201,260.302 92.5,262.5C 88.9429,274.033 84.9429,285.366 80.5,296.5C 78.8958,297.287 78.2291,298.62 78.5,300.5C 78.1455,303.067 77.4788,305.567 76.5,308C 76.6387,309.301 77.3054,310.134 78.5,310.5C 78.5,311.5 78.5,312.5 78.5,313.5C 79.9587,313.433 81.2921,313.766 82.5,314.5C 84.1942,315.527 85.5275,316.861 86.5,318.5C 86.7376,320.404 87.7376,321.738 89.5,322.5C 90.5,322.833 91.1667,323.5 91.5,324.5C 91.427,326.027 92.0937,327.027 93.5,327.5C 93.8333,328.5 94.5,329.167 95.5,329.5C 96.8776,330.545 97.8776,331.878 98.5,333.5C 98.8333,334.5 99.5,335.167 100.5,335.5C 101.906,335.973 102.573,336.973 102.5,338.5C 102.833,339.5 103.5,340.167 104.5,340.5C 105.5,340.833 106.167,341.5 106.5,342.5C 107.324,345.764 107.658,349.098 107.5,352.5C 107.426,354.411 106.426,355.578 104.5,356C 78.8268,356.833 53.1602,356.666 27.5,355.5C 22.9428,348.638 23.9428,342.638 30.5,337.5C 32.5869,336.415 33.9202,334.749 34.5,332.5C 34.5,331.833 34.8333,331.5 35.5,331.5C 37.5311,330.461 38.8645,328.795 39.5,326.5C 39.5,325.833 39.8333,325.5 40.5,325.5C 42.5869,324.415 43.9202,322.749 44.5,320.5C 46.9544,316.23 50.2878,312.896 54.5,310.5C 56.0269,310.573 57.0269,309.906 57.5,308.5C 68.2751,278.182 79.2751,247.849 90.5,217.5C 92.1042,216.713 92.7709,215.38 92.5,213.5C 92.359,209.907 91.6924,206.407 90.5,203C 90.8747,200.711 91.5414,198.545 92.5,196.5C 94.2132,195.365 94.8799,193.698 94.5,191.5C 101.709,170.119 109.042,148.786 116.5,127.5C 117.674,126.486 118.34,125.153 118.5,123.5C 120.431,116.412 122.597,109.412 125,102.5C 125.835,99.7312 127.335,99.0645 129.5,100.5 Z M 70.5,325.5 C 71.8109,328.415 71.1442,330.915 68.5,333C 62.0526,333.617 59.7193,330.784 61.5,324.5C 64.778,322.893 67.778,323.227 70.5,325.5 Z"/></g>
<g><path style="opacity:0.408" fill="#949494" d="M 129.5,100.5 C 131.19,100.856 132.19,101.856 132.5,103.5C 130.81,103.144 129.81,102.144 129.5,100.5 Z"/></g>
<g><path style="opacity:0.027" fill="#bcbcbc" d="M 172.5,102.5 C 173.5,102.833 174.167,103.5 174.5,104.5C 173.167,104.5 172.5,103.833 172.5,102.5 Z"/></g>
<g><path style="opacity:0.388" fill="#8a8a8a" d="M 152.5,111.5 C 152.204,113.403 151.537,115.07 150.5,116.5C 150.12,114.302 150.787,112.635 152.5,111.5 Z"/></g>
<g><path style="opacity:0.004" fill="#c2c2c2" d="M 189.5,121.5 C 190.5,121.833 191.167,122.5 191.5,123.5C 190.167,123.5 189.5,122.833 189.5,121.5 Z"/></g>
<g><path style="opacity:0.039" fill="#c6c6c6" d="M 118.5,123.5 C 118.34,125.153 117.674,126.486 116.5,127.5C 116.229,125.62 116.896,124.287 118.5,123.5 Z"/></g>
<g><path style="opacity:0.173" fill="#b3b3b3" d="M 147.5,126.5 C 147.34,128.153 146.674,129.486 145.5,130.5C 145.229,128.62 145.896,127.287 147.5,126.5 Z"/></g>
<g><path style="opacity:0.224" fill="#d4d4d4" d="M 199.5,133.5 C 200.833,133.5 201.5,134.167 201.5,135.5C 200.5,135.167 199.833,134.5 199.5,133.5 Z"/></g>
<g><path style="opacity:0.239" fill="#cbcbcb" d="M 201.5,135.5 C 202.833,135.5 203.5,136.167 203.5,137.5C 202.5,137.167 201.833,136.5 201.5,135.5 Z"/></g>
<g><path style="opacity:0.008" fill="#c6c6c6" d="M 209.5,143.5 C 210.5,143.833 211.167,144.5 211.5,145.5C 210.167,145.5 209.5,144.833 209.5,143.5 Z"/></g>
<g><path style="opacity:0.012" fill="#bebebe" d="M 211.5,145.5 C 212.5,145.833 213.167,146.5 213.5,147.5C 212.167,147.5 211.5,146.833 211.5,145.5 Z"/></g>
<g><path style="opacity:0.314" fill="#a6a6a6" d="M 134.5,162.5 C 134.598,164.553 133.931,166.22 132.5,167.5C 132.402,165.447 133.069,163.78 134.5,162.5 Z"/></g>
<g><path style="opacity:0.073" fill="#bcbcbc" d="M 132.5,167.5 C 132.88,169.698 132.213,171.365 130.5,172.5C 130.796,170.597 131.463,168.93 132.5,167.5 Z"/></g>
<g><path style="opacity:0.008" fill="#c8c8c8" d="M 272.5,170.5 C 273.833,170.5 274.5,171.167 274.5,172.5C 273.5,172.167 272.833,171.5 272.5,170.5 Z"/></g>
<g><path style="opacity:0.004" fill="#c9c9c9" d="M 274.5,172.5 C 275.833,172.5 276.5,173.167 276.5,174.5C 275.5,174.167 274.833,173.5 274.5,172.5 Z"/></g>
<g><path style="opacity:0.11" fill="#e7e7e7" d="M 236.5,174.5 C 237.833,174.5 238.5,175.167 238.5,176.5C 237.5,176.167 236.833,175.5 236.5,174.5 Z"/></g>
<g><path style="opacity:0.157" fill="#e5e5e5" d="M 238.5,176.5 C 239.833,176.5 240.5,177.167 240.5,178.5C 239.5,178.167 238.833,177.5 238.5,176.5 Z"/></g>
<g><path style="opacity:0.008" fill="#cacaca" d="M 283.5,181.5 C 284.833,181.5 285.5,182.167 285.5,183.5C 284.5,183.167 283.833,182.5 283.5,181.5 Z"/></g>
<g><path style="opacity:0.008" fill="#cacaca" d="M 285.5,183.5 C 286.833,183.5 287.5,184.167 287.5,185.5C 286.5,185.167 285.833,184.5 285.5,183.5 Z"/></g>
<g><path style="opacity:0.008" fill="#c9c9c9" d="M 287.5,185.5 C 288.833,185.5 289.5,186.167 289.5,187.5C 288.5,187.167 287.833,186.5 287.5,185.5 Z"/></g>
<g><path style="opacity:0.251" fill="#8b8b8b" d="M 94.5,191.5 C 94.8799,193.698 94.2132,195.365 92.5,196.5C 92.7959,194.597 93.4625,192.93 94.5,191.5 Z"/></g>
<g><path style="opacity:0.004" fill="#cbcbcb" d="M 296.5,194.5 C 297.833,194.5 298.5,195.167 298.5,196.5C 297.5,196.167 296.833,195.5 296.5,194.5 Z"/></g>
<g><path style="opacity:0.004" fill="#cacaca" d="M 298.5,196.5 C 299.833,196.5 300.5,197.167 300.5,198.5C 299.5,198.167 298.833,197.5 298.5,196.5 Z"/></g>
<g><path style="opacity:0.459" fill="#8f8f8f" d="M 258.5,198.5 C 261.167,199.167 262.833,200.833 263.5,203.5C 261.5,202.167 259.833,200.5 258.5,198.5 Z"/></g>
<g><path style="opacity:0.004" fill="#cccccc" d="M 300.5,198.5 C 301.833,198.5 302.5,199.167 302.5,200.5C 301.5,200.167 300.833,199.5 300.5,198.5 Z"/></g>
<g><path style="opacity:0.004" fill="#cacaca" d="M 302.5,200.5 C 303.833,200.5 304.5,201.167 304.5,202.5C 303.5,202.167 302.833,201.5 302.5,200.5 Z"/></g>
<g><path style="opacity:0.008" fill="#cacaca" d="M 311.5,209.5 C 312.833,209.5 313.5,210.167 313.5,211.5C 312.5,211.167 311.833,210.5 311.5,209.5 Z"/></g>
<g><path style="opacity:0.008" fill="#cacaca" d="M 313.5,211.5 C 314.833,211.5 315.5,212.167 315.5,213.5C 314.5,213.167 313.833,212.5 313.5,211.5 Z"/></g>
<g><path style="opacity:0.008" fill="#cacaca" d="M 315.5,213.5 C 316.833,213.5 317.5,214.167 317.5,215.5C 316.5,215.167 315.833,214.5 315.5,213.5 Z"/></g>
<g><path style="opacity:0.141" fill="#b0b0b0" d="M 92.5,213.5 C 92.7709,215.38 92.1042,216.713 90.5,217.5C 90.6596,215.847 91.3263,214.514 92.5,213.5 Z"/></g>
<g><path style="opacity:0.435" fill="#b6b6b6" d="M 277.5,219.5 C 278.833,219.5 279.5,220.167 279.5,221.5C 278.5,221.167 277.833,220.5 277.5,219.5 Z"/></g>
<g><path style="opacity:0.129" fill="#b6b6b6" d="M 108.5,219.5 C 108.573,221.027 107.906,222.027 106.5,222.5C 106.427,220.973 107.094,219.973 108.5,219.5 Z"/></g>
<g><path style="opacity:0.004" fill="#cccccc" d="M 324.5,222.5 C 325.833,222.5 326.5,223.167 326.5,224.5C 325.5,224.167 324.833,223.5 324.5,222.5 Z"/></g>
<g><path style="opacity:0.008" fill="#cbcbcb" d="M 326.5,224.5 C 327.833,224.5 328.5,225.167 328.5,226.5C 327.5,226.167 326.833,225.5 326.5,224.5 Z"/></g>
<g><path style="opacity:0.008" fill="#cccccc" d="M 328.5,226.5 C 329.833,226.5 330.5,227.167 330.5,228.5C 329.5,228.167 328.833,227.5 328.5,226.5 Z"/></g>
<g><path style="opacity:0.004" fill="#c9c9c9" d="M 330.5,228.5 C 331.833,228.5 332.5,229.167 332.5,230.5C 331.5,230.167 330.833,229.5 330.5,228.5 Z"/></g>
<g><path style="opacity:0.004" fill="#cecece" d="M 288.5,231.5 C 289.5,231.833 290.167,232.5 290.5,233.5C 289.167,233.5 288.5,232.833 288.5,231.5 Z"/></g>
<g><path style="opacity:0.067" fill="#c3c3c3" d="M 339.5,239.5 C 340.906,239.973 341.573,240.973 341.5,242.5C 340.094,242.027 339.427,241.027 339.5,239.5 Z"/></g>
<g><path style="opacity:0.027" fill="#ababab" d="M 301.5,246.5 C 302.906,246.973 303.573,247.973 303.5,249.5C 302.094,249.027 301.427,248.027 301.5,246.5 Z"/></g>
<g><path style="opacity:0.498" fill="#646464" d="M 303.5,249.5 C 304.649,249.791 305.316,250.624 305.5,252C 305.613,253.699 304.947,254.866 303.5,255.5C 304.641,253.451 304.641,251.451 303.5,249.5 Z"/></g>
<g><path style="opacity:0.044" fill="#e4e4e4" d="M 342.5,247.5 C 343.493,256.318 343.827,265.318 343.5,274.5C 341.62,274.771 340.287,274.104 339.5,272.5C 340.496,272.414 341.329,272.748 342,273.5C 342.5,264.84 342.666,256.173 342.5,247.5 Z"/></g>
<g><path style="opacity:0.312" fill="#888888" d="M 303.5,257.5 C 303.741,259.898 303.074,261.898 301.5,263.5C 301.595,261.214 302.262,259.214 303.5,257.5 Z"/></g>
<g><path style="opacity:0.294" fill="#8b8b8b" d="M 94.5,257.5 C 94.2041,259.403 93.5375,261.07 92.5,262.5C 92.1201,260.302 92.7868,258.635 94.5,257.5 Z"/></g>
<g><path style="opacity:0.29" fill="#9c9c9c" d="M 322.5,275.5 C 324.898,275.259 326.898,275.926 328.5,277.5C 326.214,277.405 324.214,276.738 322.5,275.5 Z"/></g>
<g><path style="opacity:0.995" fill="#090909" d="M 322.5,275.5 C 324.214,276.738 326.214,277.405 328.5,277.5C 330.786,277.595 332.786,278.262 334.5,279.5C 334.821,281.048 335.821,281.715 337.5,281.5C 339.587,282.585 340.92,284.251 341.5,286.5C 341.932,287.71 342.599,288.71 343.5,289.5C 343.5,289.833 343.5,290.167 343.5,290.5C 335.862,291.831 327.862,292.498 319.5,292.5C 311.326,292.5 303.326,292.166 295.5,291.5C 295.5,291.167 295.5,290.833 295.5,290.5C 297.104,289.713 297.771,288.38 297.5,286.5C 298.906,286.027 299.573,285.027 299.5,283.5C 300.262,281.738 301.596,280.738 303.5,280.5C 305.027,280.573 306.027,279.906 306.5,278.5C 311.41,275.932 316.743,274.932 322.5,275.5 Z"/></g>
<g><path style="opacity:0.62" fill="#7a7a7a" d="M 306.5,278.5 C 306.027,279.906 305.027,280.573 303.5,280.5C 303.973,279.094 304.973,278.427 306.5,278.5 Z"/></g>
<g><path style="opacity:0.788" fill="#878787" d="M 334.5,279.5 C 335.71,279.932 336.71,280.599 337.5,281.5C 335.821,281.715 334.821,281.048 334.5,279.5 Z"/></g>
<g><path style="opacity:0.212" fill="#9d9d9d" d="M 299.5,283.5 C 299.573,285.027 298.906,286.027 297.5,286.5C 297.427,284.973 298.094,283.973 299.5,283.5 Z"/></g>
<g><path style="opacity:0.004" fill="#cfcfcf" d="M 341.5,286.5 C 343.048,286.821 343.715,287.821 343.5,289.5C 342.599,288.71 341.932,287.71 341.5,286.5 Z"/></g>
<g><path style="opacity:0.322" fill="#959595" d="M 297.5,286.5 C 297.771,288.38 297.104,289.713 295.5,290.5C 295.66,288.847 296.326,287.514 297.5,286.5 Z"/></g>
<g><path style="opacity:0.611" fill="#636363" d="M 343.5,290.5 C 344.404,291.209 344.737,292.209 344.5,293.5C 327.82,293.833 311.153,293.499 294.5,292.5C 294.624,291.893 294.957,291.56 295.5,291.5C 303.326,292.166 311.326,292.5 319.5,292.5C 327.862,292.498 335.862,291.831 343.5,290.5 Z"/></g>
<g><path style="opacity:0.29" fill="#acacac" d="M 80.5,296.5 C 80.3404,298.153 79.6737,299.486 78.5,300.5C 78.2291,298.62 78.8958,297.287 80.5,296.5 Z"/></g>
<g><path style="opacity:0.26" fill="#b8b8b8" d="M 150.5,302.5 C 247.332,301.334 344.332,301.168 441.5,302C 442.416,302.278 443.082,302.778 443.5,303.5C 345.862,302.507 248.195,302.174 150.5,302.5 Z"/></g>
<g><path style="opacity:0.999" fill="#010101" d="M 150.5,302.5 C 248.195,302.174 345.862,302.507 443.5,303.5C 445.262,304.262 446.262,305.596 446.5,307.5C 446.5,330.167 446.5,352.833 446.5,375.5C 454.586,375.199 462.586,375.533 470.5,376.5C 471.809,382.371 471.809,388.371 470.5,394.5C 426.6,395.169 382.766,395.836 339,396.5C 338.617,395.944 338.117,395.611 337.5,395.5C 336.833,395.5 336.5,395.167 336.5,394.5C 341.08,391.341 344.747,387.341 347.5,382.5C 348.906,382.027 349.573,381.027 349.5,379.5C 349.5,378.833 349.5,378.167 349.5,377.5C 351.074,375.898 351.741,373.898 351.5,371.5C 351.54,368.119 351.207,364.786 350.5,361.5C 350.946,358.99 350.28,356.99 348.5,355.5C 346.229,352.211 343.895,348.878 341.5,345.5C 340.738,343.738 339.404,342.738 337.5,342.5C 336.833,342.5 336.5,342.167 336.5,341.5C 335.486,340.326 334.153,339.66 332.5,339.5C 313.897,333.752 300.063,339.419 291,356.5C 289.038,361.656 288.205,366.989 288.5,372.5C 288.171,375.228 288.837,377.562 290.5,379.5C 290.5,379.833 290.5,380.167 290.5,380.5C 290.66,382.153 291.326,383.486 292.5,384.5C 294.833,386.833 297.167,389.167 299.5,391.5C 299.414,392.496 299.748,393.329 300.5,394C 240.834,394.5 181.168,394.667 121.5,394.5C 120.347,388.681 120.181,382.681 121,376.5C 121.383,375.944 121.883,375.611 122.5,375.5C 130.167,375.5 137.833,375.5 145.5,375.5C 145.5,352.833 145.5,330.167 145.5,307.5C 146.189,304.811 147.856,303.144 150.5,302.5 Z"/></g>
<g><path style="opacity:0.486" fill="#999999" d="M 57.5,308.5 C 57.0269,309.906 56.0269,310.573 54.5,310.5C 54.9731,309.094 55.9731,308.427 57.5,308.5 Z"/></g>
<g><path style="opacity:0.253" fill="#b5b5b5" d="M 446.5,307.5 C 447.497,329.66 447.831,351.994 447.5,374.5C 455.573,373.868 463.24,374.535 470.5,376.5C 462.586,375.533 454.586,375.199 446.5,375.5C 446.5,352.833 446.5,330.167 446.5,307.5 Z"/></g>
<g><path style="opacity:0.773" fill="#555555" d="M 78.5,310.5 C 80.3407,311.402 81.674,312.736 82.5,314.5C 81.2921,313.766 79.9587,313.433 78.5,313.5C 78.5,312.5 78.5,311.5 78.5,310.5 Z"/></g>
<g><path style="opacity:0.224" fill="#989898" d="M 86.5,318.5 C 88.2624,319.262 89.2624,320.596 89.5,322.5C 87.7376,321.738 86.7376,320.404 86.5,318.5 Z"/></g>
<g><path style="opacity:0.182" fill="#898989" d="M 70.5,325.5 C 67.778,323.227 64.778,322.893 61.5,324.5C 62.4919,322.974 63.9919,322.307 66,322.5C 68.6257,322.05 70.1257,323.05 70.5,325.5 Z"/></g>
<g><path style="opacity:0.2" fill="#a0a0a0" d="M 44.5,320.5 C 43.9202,322.749 42.5869,324.415 40.5,325.5C 41.0798,323.251 42.4131,321.585 44.5,320.5 Z"/></g>
<g><path style="opacity:0.451" fill="#a2a2a2" d="M 91.5,324.5 C 92.9063,324.973 93.573,325.973 93.5,327.5C 92.0937,327.027 91.427,326.027 91.5,324.5 Z"/></g>
<g><path style="opacity:0.424" fill="#6c6c6c" d="M 39.5,326.5 C 38.8645,328.795 37.5311,330.461 35.5,331.5C 36.1237,329.246 37.457,327.579 39.5,326.5 Z"/></g>
<g><path style="opacity:0.004" fill="#d7d7d7" d="M 93.5,327.5 C 94.8333,327.5 95.5,328.167 95.5,329.5C 94.5,329.167 93.8333,328.5 93.5,327.5 Z"/></g>
<g><path style="opacity:0.008" fill="#d6d6d6" d="M 98.5,333.5 C 99.8333,333.5 100.5,334.167 100.5,335.5C 99.5,335.167 98.8333,334.5 98.5,333.5 Z"/></g>
<g><path style="opacity:0.125" fill="#cacaca" d="M 145.5,307.5 C 145.5,330.167 145.5,352.833 145.5,375.5C 137.833,375.5 130.167,375.5 122.5,375.5C 129.648,374.508 136.981,374.175 144.5,374.5C 144.169,351.994 144.503,329.66 145.5,307.5 Z"/></g>
<g><path style="opacity:0.384" fill="#9a9a9a" d="M 34.5,332.5 C 33.9202,334.749 32.5869,336.415 30.5,337.5C 31.0798,335.251 32.4131,333.585 34.5,332.5 Z"/></g>
<g><path style="opacity:0.024" fill="#bcbcbc" d="M 102.5,338.5 C 103.833,338.5 104.5,339.167 104.5,340.5C 103.5,340.167 102.833,339.5 102.5,338.5 Z"/></g>
<g><path style="opacity:0.075" fill="#b5b5b5" d="M 332.5,339.5 C 334.153,339.66 335.486,340.326 336.5,341.5C 334.62,341.771 333.287,341.104 332.5,339.5 Z"/></g>
<g><path style="opacity:0.518" fill="#a3a3a3" d="M 337.5,342.5 C 339.404,342.738 340.738,343.738 341.5,345.5C 339.596,345.262 338.262,344.262 337.5,342.5 Z"/></g>
<g><path style="opacity:0.996" fill="#0f0f0f" d="M 332.5,348.5 C 332.81,350.144 333.81,351.144 335.5,351.5C 335.833,352.5 336.5,353.167 337.5,353.5C 346.523,366.051 345.19,377.551 333.5,388C 316.637,395.979 304.471,391.479 297,374.5C 294.574,357.009 302.074,347.009 319.5,344.5C 324.26,344.84 328.593,346.174 332.5,348.5 Z"/></g>
<g><path style="opacity:0.337" fill="#656565" d="M 106.5,342.5 C 107.117,342.611 107.617,342.944 108,343.5C 108.805,346.696 108.638,349.696 107.5,352.5C 107.658,349.098 107.324,345.764 106.5,342.5 Z"/></g>
<g><path style="opacity:0.173" fill="#a6a6a6" d="M 332.5,348.5 C 334.19,348.856 335.19,349.856 335.5,351.5C 333.81,351.144 332.81,350.144 332.5,348.5 Z"/></g>
<g><path style="opacity:0.012" fill="#d0d0d0" d="M 335.5,351.5 C 336.833,351.5 337.5,352.167 337.5,353.5C 336.5,353.167 335.833,352.5 335.5,351.5 Z"/></g>
<g><path style="opacity:0.404" fill="#808080" d="M 348.5,355.5 C 350.28,356.99 350.946,358.99 350.5,361.5C 349.542,359.698 348.875,357.698 348.5,355.5 Z"/></g>
<g><path style="opacity:0.243" fill="#a3a3a3" d="M 351.5,371.5 C 351.741,373.898 351.074,375.898 349.5,377.5C 349.595,375.214 350.262,373.214 351.5,371.5 Z"/></g>
<g><path style="opacity:0.718" fill="#828282" d="M 288.5,372.5 C 289.612,374.599 290.279,376.933 290.5,379.5C 288.837,377.562 288.171,375.228 288.5,372.5 Z"/></g>
<g><path style="opacity:0.075" fill="#bebebe" d="M 349.5,379.5 C 349.573,381.027 348.906,382.027 347.5,382.5C 347.427,380.973 348.094,379.973 349.5,379.5 Z"/></g>
<g><path style="opacity:0.141" fill="#a0a0a0" d="M 290.5,380.5 C 292.104,381.287 292.771,382.62 292.5,384.5C 291.326,383.486 290.66,382.153 290.5,380.5 Z"/></g>
<g><path style="opacity:0.825" fill="#2d2d2d" d="M 299.5,391.5 C 302.016,392.6 303.016,394.267 302.5,396.5C 242.039,395.837 181.706,395.17 121.5,394.5C 181.168,394.667 240.834,394.5 300.5,394C 299.748,393.329 299.414,392.496 299.5,391.5 Z"/></g>
<g><path style="opacity:0.031" fill="#b0b0b0" d="M 336.5,394.5 C 336.5,395.167 336.833,395.5 337.5,395.5C 337.44,396.043 337.107,396.376 336.5,396.5C 335.227,395.743 335.227,395.077 336.5,394.5 Z"/></g>
</svg>
