<?xml version="1.0" encoding="UTF-8"?>
<svg id="a" data-name="Слой 1" xmlns="http://www.w3.org/2000/svg" viewBox="0 0 744.84 824.12">
  <path d="M33,.06C178-.1,323,.06,468,.56c2.74.8,5.41,1.8,8,3,54.64,53.64,108.14,108.14,160.5,163.5,1.14,22.29,1.64,44.63,1.5,67-.33,20.67-.67,41.33-1,62-3.33,2.33-6.67,4.67-10,7-11.54,12.01-23.38,23.68-35.5,35-1.16-22.41-1.66-44.91-1.5-67.5,0-22.07.34-44.07,1-66-42.67-.33-85.33-.67-128-1-16.25-3.92-26.09-14.09-29.5-30.5-.83-41.24-.66-82.4.5-123.5-128.33-.5-256.67-.67-385-.5v726c73-.17,146,0,219,.5,5.24,4.25,9.41,9.42,12.5,15.5,11.78,13.15,25.95,16.65,42.5,10.5,15.36-9.68,31.36-18.35,48-26,73.33-.5,146.67-.67,220-.5-.17-54.67,0-109.33.5-164,15.03-16.03,30.36-31.69,46-47,.67,76.67.67,153.33,0,230-3.16,13.83-11.33,23.33-24.5,28.5-194.63,1.66-389.3,1.99-584,1-16.41-3.74-25.91-13.91-28.5-30.5C-.17,538.73-.17,284.4.5,30.06,4.83,12.89,15.67,2.89,33,.06Z" style="fill: #010101; fill-rule: evenodd;"/>
  <path d="M129,147.06c71.33-.17,142.67,0,214,.5,14.81,3.77,20.98,13.27,18.5,28.5-2.61,8.27-8.11,13.44-16.5,15.5-73,.67-146,.67-219,0-10.44-3.53-15.77-10.86-16-22,1.17-11.99,7.5-19.49,19-22.5Z" style="fill-rule: evenodd;"/>
  <path d="M126,256.06c130.67-.17,261.33,0,392,.5,16.27,7.15,20.44,18.65,12.5,34.5-3.09,4.43-7.26,7.26-12.5,8.5-130.67.67-261.33.67-392,0-9.95-3.88-15.28-11.21-16-22,.35-4.89,1.85-9.39,4.5-13.5,3.46-3.3,7.3-5.97,11.5-8Z" style="fill-rule: evenodd;"/>
  <path d="M664,323.06c13.48-2.22,25.14,1.28,35,10.5,12.47,13.47,25.3,26.64,38.5,39.5,9.78,13.96,9.78,27.96,0,42l-51,51c-1.74-2.87-3.74-5.53-6-8-26.23-26.23-52.4-52.4-78.5-78.5,15.57-16.57,31.57-32.91,48-49,4.6-2.8,9.27-5.3,14-7.5Z" style="fill-rule: evenodd;"/>
  <path d="M128,361.06c106.33-.17,212.67,0,319,.5,17.79,5.74,22.95,17.24,15.5,34.5-3.99,5.08-9.16,8.24-15.5,9.5-106.33.67-212.67.67-319,0-11.36-3.2-17.36-10.7-18-22.5,1.27-11.26,7.27-18.59,18-22Z" style="fill-rule: evenodd;"/>
  <path d="M582,401.06c28.3,27.8,56.47,55.8,84.5,84,.67,1,.67,2,0,3-72.42,73.42-145.25,146.59-218.5,219.5-43.79,20.73-87.46,41.73-131,63-12.33,2-17.83-3.17-16.5-15.5l60-132c74.57-73.07,148.4-147.07,221.5-222Z" style="fill-rule: evenodd;"/>
  <path d="M127,468.06c55.67-.17,111.33,0,167,.5,14.22,4.94,19.72,14.77,16.5,29.5-3.19,8.01-9.02,12.85-17.5,14.5-55,.67-110,.67-165,0-11.36-3.2-17.36-10.7-18-22.5,1.2-10.86,6.87-18.19,17-22Z" style="fill-rule: evenodd;"/>
  <path d="M127,576.06c47.67-.17,95.33,0,143,.5,12.33,4.01,17.83,12.51,16.5,25.5-2.06,9.06-7.56,14.89-16.5,17.5-48,.67-96,.67-144,0-10.14-3.27-15.48-10.27-16-21,.96-11.12,6.62-18.62,17-22.5Z" style="fill-rule: evenodd;"/>
  <path d="M378,645.06c9.16,7.99,18.16,16.16,27,24.5,6.82,6.99,13.49,14.16,20,21.5-18.64,8.98-37.3,17.98-56,27-3.51-7.03-8.01-13.36-13.5-19-.17-1-.33-2-.5-3,6.86-17.39,14.53-34.39,23-51Z" style="fill: #fdfdfd; fill-rule: evenodd;"/>
</svg>