<?xml version="1.0" encoding="UTF-8"?>
<svg id="b" data-name="Слой 2" xmlns="http://www.w3.org/2000/svg" viewBox="0 0 876.81 448.08">
  <g id="c" data-name="Слой 1">
    <path d="M99.81,157.08c40-.17,80,0,120,.5,12.54,5.57,16.37,14.74,11.5,27.5-2.74,3.62-6.24,6.12-10.5,7.5-69.01.03-138.01.03-207,0-12.04-4.58-16.21-13.08-12.5-25.5,1.83-3.17,4.33-5.67,7.5-7.5,30.44-1.14,60.77-1.98,91-2.5Z" style="fill: #030303; fill-rule: evenodd;"/>
    <path d="M582.81,211.08c10.67-.17,21.34,0,32,.5,12.07,6.58,13.07,14.58,3,24l-6,3c-9.08.91-18.08.58-27-1-10.59-3.36-14.09-10.19-10.5-20.5,2.67-2.4,5.51-4.4,8.5-6Z" style="fill: #010101; fill-rule: evenodd;"/>
    <path d="M876.31,238.08c-.78-20.06-9.28-35.9-25.5-47.5l-78-39c-2.46-1.46-4.63-3.29-6.5-5.5-23.75-38.5-47.75-76.84-72-115-11.68-16.32-27.52-26.15-47.5-29.5C521.81.29,396.81-.21,271.81.08c-31.16.83-62.5,1.33-94,1.5-11.9,3.9-18.73,12.06-20.5,24.5-.77,17.68-1.6,35.35-2.5,53-34.31.81-68.64,1.31-103,1.5-3.1,1.44-5.94,3.27-8.5,5.5-6.55,11.75-4.05,20.92,7.5,27.5,69,.91,138,1.24,207,1,6.23-1.96,10.06-6.13,11.5-12.5,1.92-9.65-1.58-16.48-10.5-20.5-22.6-1.3-45.27-1.97-68-2-.64-2.58-.97-5.24-1-8,.68-11.5,1.35-23,2-34.5,109.23-1.41,218.4-1.74,327.5-1,.83,96.57.66,193.07-.5,289.5-45.33.67-90.67.67-136,0-2.36-5.21-4.86-10.38-7.5-15.5-15.24-26.9-38.08-43.4-68.5-49.5-20.73-2.39-40.07,1.61-58,12-5.67,4.33-11.33,8.67-17,13-12.39,11.28-21.39,24.78-27,40.5h-37c.87-20.33,1.7-40.66,2.5-61,2.67-5.53,4.17-11.37,4.5-17.5.39-7.91-3.28-12.58-11-14-38.33-.08-76.67.25-115,1-3.4,1.4-6.24,3.57-8.5,6.5-5.7,13.24-1.87,22.41,11.5,27.5,27.33.5,54.66.67,82,.5-.48,24.34-.65,48.67-.5,73,3.85,11.85,12.02,18.35,24.5,19.5,14.33.5,28.66.67,43,.5,1.17,12.99,4.67,25.33,10.5,37,16.21,25.55,39.05,41.72,68.5,48.5,13.1,1,26.1.33,39-2,39.29-13.96,61.62-41.63,67-83,82.33-.67,164.67-.67,247,0,2.27,14.22,6.77,27.72,13.5,40.5,12.17,17.18,27.67,30.34,46.5,39.5,9.55,3.35,19.39,5.18,29.5,5.5,54.07-3.9,85.9-32.56,95.5-86,13.06.42,26.06-.08,39-1.5,10.79-3.72,17.29-11.22,19.5-22.5.67-33.33.67-66.67,0-100ZM317.81,398.58c-29.22,12.82-52.05,5.66-68.5-21.5-11.08-25.5-5.92-47,15.5-64.5,6.42-3.72,13.09-6.55,20-8.5,21.35-2.07,38.51,5.27,51.5,22,14.42,29.47,8.26,53.64-18.5,72.5ZM555.81,36.08c28,.91,56,1.07,84,.5,11.8,2.48,20.64,8.98,26.5,19.5,16.83,27.67,34.17,55.01,52,82,1.36,2.36,2.36,4.69,3,7-54.76,1.16-109.6,1.33-164.5.5-1-36.43-1.33-72.93-1-109.5ZM734.81,402.58c-20.48,3.33-36.98-3.17-49.5-19.5-12.94-25.12-9.44-47.62,10.5-67.5,7.42-5.21,15.42-9.04,24-11.5,29.45-2.08,47.95,11.26,55.5,40,2.99,31-10.51,50.5-40.5,58.5ZM840.81,326.08c-8.69.33-17.36,0-26-1-23.38-55.19-64.04-74.69-122-58.5-25.98,11.98-44.48,31.14-55.5,57.5-.75.63-1.58,1.13-2.5,1.5-26.24.83-52.41.66-78.5-.5-.67-46.33-.67-92.67,0-139l1.5-1.5c47.5-.17,94.84-.67,142-1.5,15.67-.17,31.34,0,47,.5,25.57,9.95,50.57,21.28,75,34,5.26,2.54,10.09,5.71,14.5,9.5,1.93,3.45,3.26,7.11,4,11,.5,29.33.67,58.66.5,88Z" style="fill: #010101; fill-rule: evenodd;"/>
  </g>
</svg>