<?xml version="1.0" encoding="UTF-8"?>
<svg id="b" data-name="Слой 2" xmlns="http://www.w3.org/2000/svg" viewBox="0 0 687.06 868">
  <g id="c" data-name="Слой 1">
    <path d="M73,0h362c-.17,57,0,114,.5,171,6.24,42.91,30.74,68.08,73.5,75.5,59.33.5,118.67.67,178,.5.17,181,0,362-.5,543-4.9,33.56-22.73,57.39-53.5,71.5-7.7,3.23-15.7,5.23-24,6-177.67.67-355.33.67-533,0-33.99-6.32-57.49-25.49-70.5-57.5-2.3-7.19-3.96-14.52-5-22C-.17,551-.17,314,.5,77,7.76,35.25,31.93,9.58,73,0Z" style="fill-rule: evenodd;"/>
    <path d="M486,36c53.16,52.33,105.83,105.16,158,158.5-45,.67-90,.67-135,0-12.62-2.95-20.12-10.79-22.5-23.5-.5-45-.67-90-.5-135Z" style="fill-rule: evenodd;"/>
  </g>
</svg>