<?xml version="1.0" encoding="UTF-8"?>
<svg id="a" data-name="Слой 1" xmlns="http://www.w3.org/2000/svg" viewBox="0 0 685 786.44">
  <path d="M371.47,1.83c13.87,10.4,27.54,21.06,41,31.98,8.14,11.07,10.72,23.32,7.76,36.77-4.08,15.45-7.96,30.94-11.63,46.49,1.03,6.14,4.63,9.94,10.79,11.4,3.09-.1,5.8-1.17,8.13-3.22,16.17-14.22,30.59-30.05,43.25-47.5,69.21,52.72,138.22,105.7,207.02,158.94,9.66,12.18,9.61,24.31-.14,36.4-32.46,33.65-64.54,67.65-96.26,102.01-23.96,26.93-47.02,54.62-69.18,83.06-102.74-78.56-205.48-157.13-308.21-235.69,12.35-17.82,25.11-35.34,38.29-52.54,6.73,1.24,13.49,2,20.28,2.29,9.94-.37,19.87-.75,29.81-1.12,12.11,1.77,20.58,8.25,25.42,19.44,2.83,10.56,5.67,21.12,8.5,31.68,9.09,21.25,25.18,33.13,48.27,35.65,9.53.16,19.06.31,28.6.47,9.93,1.72,17.95,6.6,24.06,14.63,4.87,11.55,8.82,23.39,11.87,35.51,8.02,19.48,22.1,32.35,42.24,38.6,12.68,3.21,20.02-1.46,22.03-13.99-.61-6-3.67-10.23-9.18-12.69-12.71-3.46-22.04-11.01-27.99-22.66-3.76-13.94-8.44-27.58-14.02-40.93-11.52-17.01-27.5-26.29-47.94-27.85-11.66,1.08-23.18.24-34.58-2.52-9.2-3.6-15.07-10.19-17.62-19.77-1.79-11.63-4.95-22.86-9.49-33.69-9.76-17.71-24.67-27.85-44.72-30.42-12.83-.43-25.66-.38-38.5.14,26.51-42.99,52.36-86.39,77.52-130.18,9.15-11.53,20.68-15.09,34.6-10.68Z" style="fill-rule: evenodd;"/>
  <path d="M185.78,246.31c102.84,78.43,205.48,157.13,307.91,236.09,1.34,2.91,1.74,5.95,1.21,9.11-14.66,20.26-29.84,40.12-45.56,59.58-17.68,16.15-37.82,20.26-60.42,12.34-13.97-9.08-27.62-18.67-40.93-28.78-27.8-14.13-54.12-11.81-78.97,6.96-4.78,5.16-9.03,10.72-12.76,16.68-30.16,54.59-60.2,109.25-90.13,163.97-15.15,28.01-37.47,47.87-66.96,59.58-44.55,13.03-76.45-1.5-95.7-43.6-7.8-31.82-2.49-61.53,15.93-89.16,3.52-5.7,7.57-11,12.15-15.89,48.04-46.82,96.28-93.44,144.71-139.85,22.44-29.7,22.29-59.4-.47-89.11-14-11.9-27.95-23.83-41.87-35.79-11.99-18.62-13.65-38.14-4.95-58.55,15.47-21.32,31.46-42.24,47.99-62.75,2.9-1.33,5.83-1.6,8.81-.82Z" style="fill-rule: evenodd;"/>
  <path d="M102.66,666.15c18.14,13.89,19.6,29.27,4.37,46.14-17.79,10.17-31.85,6.34-42.19-11.49-4.8-16,.28-27.86,15.23-35.56,7.7-2.54,15.23-2.24,22.59.91Z" style="fill: #fdfdfd; fill-rule: evenodd;"/>
</svg>