<?xml version="1.0" encoding="UTF-8"?>
<svg id="b" data-name="Слой 2" xmlns="http://www.w3.org/2000/svg" viewBox="0 0 688.71 779.32">
  <g id="c" data-name="Слой 1">
    <path d="M686.7,131.09c-2.5-7.83-7.67-13-15.5-15.5-114.58-10.97-219.25-48.63-314-113-5.82-2.06-11.82-2.89-18-2.5-4.02,1.52-8.02,3.35-12,5.5C234.54,67.48,132.54,103.82,21.2,114.59c-9.66,2.32-16.16,8.16-19.5,17.5-4.46,69.88-.12,139.22,13,208,21.91,117.47,72.24,220.47,151,309,47.46,49.11,100.63,90.61,159.5,124.5,8.31,5.17,17.31,6.84,27,5,136.05-71.19,232.22-178.35,288.5-321.5,38.56-105.37,53.89-214.04,46-326ZM589.7,466.09c-44.41,98.41-111.25,177.91-200.5,238.5-14.83,9.5-29.67,19-44.5,28.5C174.75,633.27,76.75,484.94,50.7,288.09c-5.23-43.54-7.07-87.2-5.5-131,108.21-12.8,207.55-49.14,298-109,16.78,9.56,33.44,19.39,50,29.5,77.89,42.23,160.89,68.56,249,79,5.92,106.96-11.58,210.13-52.5,309.5Z" style="fill-rule: evenodd;"/>
    <path d="M521.2,217.09c20.3-1.52,32.3,7.65,36,27.5.09,6.16-1.75,11.66-5.5,16.5l-232.5,232.5c-10.81,6.42-21.14,5.75-31-2l-119.5-119.5c-12.16-22.16-6-36.66,18.5-43.5,7.63-.88,14.63.79,21,5l96.5,96.5c68.81-69.81,137.97-139.31,207.5-208.5l9-4.5Z" style="fill-rule: evenodd;"/>
  </g>
</svg>