<?xml version="1.0" encoding="UTF-8"?>
<svg id="b" data-name="Слой 2" xmlns="http://www.w3.org/2000/svg" viewBox="0 0 1117.34 768">
  <g id="c" data-name="Слой 1">
    <g>
      <text transform="translate(346.9 371.16)" style="fill: #f9f9f9; font-family: RussoOne-Regular, &apos;Russo One&apos;;"><tspan style="font-size: 313.24px;"><tspan x="0" y="0">С</tspan><tspan x="194.2" y="0" style="letter-spacing: -.01em;">ла</tspan><tspan x="571.65" y="0">в</tspan></tspan><tspan style="font-size: 227.81px;"><tspan x="0" y="182.88" xml:space="preserve" style="letter-spacing: -.06em;">     </tspan><tspan x="269.94" y="182.88" style="letter-spacing: -.02em;">Д</tspan><tspan x="443.07" y="182.88" style="letter-spacing: -.04em;">о</tspan><tspan x="578.61" y="182.88">м</tspan></tspan></text>
      <polygon points="343.33 0 343.33 99.97 379.28 99.97 379.28 53.18 643.51 149.68 643.51 109.63 343.33 0" style="fill: #f9f9f9;"/>
      <path d="M300.18,768v-360.66H18.61c28.43,106.15,100.21,260.11,281.57,360.66ZM200.32,496.78l29.91,17.32c4.5,2.47,8.7,5.58,12.48,9.21,3.78,3.63,7.12,7.88,9.91,12.63,16.37,27.98,6.91,63.93-21.1,80.3-27.98,16.37-63.95,6.93-80.3-21.08-6.34-10.83-8.79-22.87-7.81-34.49l-.25-24.52-.08-6.91c-.13-1.29-.19-2.58-.19-3.91,0-4.39.8-8.72,2.34-12.8.13-.32.25-.63.38-.93l1.22-2.66c.23-.46.46-.91.72-1.35,3.02-5.3,7.43-9.91,13.07-13.18.89-.53,1.82-1.01,2.75-1.46,2.77-1.33,5.66-2.28,8.57-2.83-.06.21-.13.4-.21.59-1.12,3.32-2.94,6.29-5.3,8.81l-.02.02c-.84.4-1.73.87-2.6,1.37-2.39,1.39-4.44,3-6.04,4.6-.7.72-1.31,1.44-1.82,2.13-1.06,1.54-1.42,2.39-1.73,3.29-.15.49-.21.97-.21,1.41,0,.61.13,1.16.42,1.65,1.84,3.13,8.98,2.37,16.01-1.75,7.01-4.08,11.21-9.95,9.4-13.09-.78-1.29-2.47-1.92-4.69-1.9,1.31-2.41,2.28-5.01,2.89-7.75,7.98-.17,15.86,2.41,22.28,7.27ZM133.48,457.88s.04-.02.04-.02c4.2-2.22,9.02-3.46,14.13-3.46,16.35,0,29.59,12.84,29.59,28.64,0,2.26-.25,4.44-.76,6.55,0,0-1.65,5.15-3.23,7.81-.19.3-.38.61-.57.91-3.82,5.91-9.86,10.35-16.98,12.27.21-.51.46-1.01.72-1.5.11-.17.19-.34.27-.51.02-.02.04-.06.06-.08.04-.02.11-.06.13-.13.11-.15.19-.3.3-.44.02-.02.04-.02.04-.04.04-.04.06-.08.08-.11.06-.08.13-.15.17-.21.21-.23.4-.44.59-.68,4.05-1.65,7.6-4.22,10.35-7.48.27-.32.53-.65.78-.97,1.8-2.39,3.19-5.01,4.08-7.88.06-.21.13-.44.21-.65.63-2.2.95-4.5.95-6.86,0-14.3-11.98-25.89-26.78-25.89s-26.78,11.59-26.78,25.89,10.79,24.69,24.5,25.83c0,.04.02.08.04.13-.06.11-.13.21-.17.32-.13.27-.25.51-.4.76-.15.3-.34.57-.49.89-.04.13-.11.25-.15.4-.04.02-.08.06-.13.11-4.46-.53-8.62-1.99-12.25-4.2-8.28-5.07-13.79-14-13.79-24.22,0-10.86,6.23-20.3,15.44-25.15Z" style="fill: #f9f9f9;"/>
      <path d="M156.31,554.1c-2.85,11.43-1.44,23.93,4.98,34.93,13.01,22.26,41.61,29.78,63.87,16.77,22.28-13.03,29.76-41.63,16.77-63.89-6.95-11.87-18.31-19.54-30.77-22.13-10.92-2.3-22.7-.7-33.09,5.36-11.28,6.59-18.78,17.19-21.75,28.96ZM239,543.62c12.06,20.66,5.11,47.16-15.54,59.22-20.66,12.06-47.16,5.11-59.22-15.54-12.06-20.63-5.11-47.16,15.54-59.22,20.63-12.06,47.16-5.09,59.22,15.54Z" style="fill: #f9f9f9;"/>
    </g>
    <g>
      <path d="M95.42,230.69h32.76c.57,0,1.03-.46,1.03-1.03s-.46-1.01-1.03-1.01h-32.76c-.57,0-1.01.44-1.01,1.01s.44,1.03,1.01,1.03Z" style="fill: #7381c6;"/>
      <path d="M95.42,226.59h32.76c.57,0,1.03-.46,1.03-1.03s-.46-1.01-1.03-1.01h-32.76c-.57,0-1.01.46-1.01,1.01s.44,1.03,1.01,1.03Z" style="fill: #7381c6;"/>
      <path d="M95.42,222.5h32.76c.57,0,1.03-.46,1.03-1.03s-.46-1.01-1.03-1.01h-32.76c-.57,0-1.01.46-1.01,1.01s.44,1.03,1.01,1.03Z" style="fill: #7381c6;"/>
      <rect x="137.41" y="163.81" width="1.35" height="122.85" style="fill: #7381c6;"/>
      <path d="M111.47,188.28c7.48,0,13.56-6.08,13.56-13.56s-6.08-13.56-13.56-13.56-13.56,6.06-13.56,13.56,6.06,13.56,13.56,13.56ZM111.47,171.32c1.86,0,3.38,1.52,3.38,3.4s-1.52,3.4-3.38,3.4-3.4-1.54-3.4-3.4,1.52-3.4,3.4-3.4ZM103.39,165.96c.74-1.12,1.69-1.8,2.15-1.5.44.3.21,1.44-.53,2.56-.74,1.12-1.69,1.8-2.13,1.5-.44-.3-.21-1.44.51-2.56Z" style="fill: #7381c6;"/>
      <path d="M111.47,189.74c8.28,0,15.02-6.72,15.02-15.02s-6.74-15.02-15.02-15.02-15.02,6.72-15.02,15.02,6.72,15.02,15.02,15.02ZM111.47,160.68c7.75,0,14.04,6.27,14.04,14.04s-6.29,14.04-14.04,14.04-14.04-6.29-14.04-14.04,6.27-14.04,14.04-14.04Z" style="fill: #7381c6;"/>
      <path d="M150.93,177.45h60.3c2.2,0,3.99-1.77,3.99-3.97v-11.15c0-2.2-1.8-3.99-3.99-3.99h-60.3c-2.2,0-3.97,1.8-3.97,3.99v11.15c0,2.2,1.77,3.97,3.97,3.97ZM150.38,173.98c0-.34.27-.63.61-.63h10.37c.34,0,.61.3.61.63v.8c0,.34-.27.61-.61.61h-10.37c-.34,0-.61-.27-.61-.61v-.8Z" style="fill: #7381c6;"/>
      <path d="M0,109.63v179.2s0,29.57,8.73,75.38h291.45V0L0,109.63ZM232.95,278.61c0,6.8-5.51,12.32-12.33,12.32H90.35c-6.82,0-12.33-5.52-12.33-12.32v-130.37c0-6.8,5.51-12.31,12.33-12.31h130.27c6.82,0,12.33,5.51,12.33,12.31v130.37Z" style="fill: #7381c6;"/>
      <path d="M213.84,190.12v12.06c0,2.07-1.67,3.74-3.74,3.74h-12.06c-2.04,0-3.73-1.67-3.73-3.74v-12.06c0-2.07,1.69-3.74,3.73-3.74h12.06c2.07,0,3.74,1.67,3.74,3.74Z" style="fill: #7381c6;"/>
      <path d="M213.25,213.2v12.04c0,2.07-1.67,3.76-3.74,3.76h-12.06c-2.07,0-3.74-1.69-3.74-3.76v-12.04c0-2.07,1.67-3.73,3.74-3.73h12.06c2.07,0,3.74,1.66,3.74,3.73Z" style="fill: #7381c6;"/>
      <path d="M213.25,236.29v12.04c0,2.07-1.67,3.73-3.74,3.73h-12.06c-2.07,0-3.74-1.66-3.74-3.73v-12.04c0-2.07,1.67-3.74,3.74-3.74h12.06c2.07,0,3.74,1.67,3.74,3.74Z" style="fill: #7381c6;"/>
      <rect x="193.71" y="255.63" width="19.54" height="19.52" rx="3.74" ry="3.74" style="fill: #7381c6;"/>
      <rect x="170.1" y="255.63" width="19.52" height="19.52" rx="3.74" ry="3.74" style="fill: #7381c6;"/>
      <path d="M189.62,236.29v12.04c0,2.07-1.67,3.73-3.74,3.73h-12.04c-2.07,0-3.74-1.66-3.74-3.73v-12.04c0-2.07,1.67-3.74,3.74-3.74h12.04c2.07,0,3.74,1.67,3.74,3.74Z" style="fill: #7381c6;"/>
      <path d="M189.62,213.2v12.04c0,2.07-1.67,3.76-3.74,3.76h-12.04c-2.07,0-3.74-1.69-3.74-3.76v-12.04c0-2.07,1.67-3.73,3.74-3.73h12.04c2.07,0,3.74,1.66,3.74,3.73Z" style="fill: #7381c6;"/>
      <path d="M190.21,190.12v12.06c0,2.07-1.67,3.74-3.74,3.74h-12.06c-2.05,0-3.74-1.67-3.74-3.74v-12.06c0-2.07,1.69-3.74,3.74-3.74h12.06c2.07,0,3.74,1.67,3.74,3.74Z" style="fill: #7381c6;"/>
      <rect x="147.57" y="186.38" width="19.51" height="19.54" rx="3.74" ry="3.74" style="fill: #7381c6;"/>
      <path d="M166.49,213.2v12.04c0,2.07-1.67,3.76-3.74,3.76h-12.06c-2.05,0-3.73-1.69-3.73-3.76v-12.04c0-2.07,1.68-3.73,3.73-3.73h12.06c2.07,0,3.74,1.66,3.74,3.73Z" style="fill: #7381c6;"/>
      <path d="M166.49,236.29v12.04c0,2.07-1.67,3.73-3.74,3.73h-12.06c-2.05,0-3.73-1.66-3.73-3.73v-12.04c0-2.07,1.68-3.74,3.73-3.74h12.06c2.07,0,3.74,1.67,3.74,3.74Z" style="fill: #7381c6;"/>
      <path d="M166.49,259.37v12.04c0,2.07-1.67,3.74-3.74,3.74h-12.06c-2.05,0-3.73-1.67-3.73-3.74v-12.04c0-2.07,1.68-3.74,3.73-3.74h12.06c2.07,0,3.74,1.67,3.74,3.74Z" style="fill: #7381c6;"/>
      <path d="M496.26,458.76l-10.86-3c1.31,3.02,1.75,6.59,1.1,10.73v.04c-2.83,11.15-7.92,29.23-10.48,38.08-.76,1.99-2.15,3.82-3.29,5.72-6.97,11.17-12.44,23.87-15.84,36.79-3.59,13.45-4.9,26.82-4.44,40.13.04,1.77-.06,3.23-.53,4.98-1.48,5.43-4.35,15.71-6.19,22.43-1.88,9.17-7.29,16.71-16.71,17.36-3.1.23-5.93-.44-8.87-1.31-3.74-1.01-10.52-2.89-14.66-4.03-12.42-2.3-19.24-12.29-15.12-25.11,1.75-6.36,6.36-23.06,8.74-31.72.63-2.37.95-3.42,1.88-5.11,11.07-18.21,18.18-39.81,19.64-61.08.34-4.05.3-8.22.44-12.23.06-1.88.89-4.27,1.48-6.55,2.18-7.81,5.72-20.74,7.88-28.51.93-3.78,2.05-6.97,4.14-9.78-4.12,2.13-7.37,5.91-8.7,10.73l-43.87,159.03c-2.56,9.21,2.89,18.78,12.1,21.31l49.04,13.54c9.23,2.53,18.78-2.89,21.33-12.1l43.87-159.01c2.56-9.21-2.87-18.78-12.1-21.33ZM488.65,535.11c-.53,1.9-2.47,3-4.37,2.49l-7.94-2.2c-1.9-.53-3-2.49-2.49-4.37.53-1.9,2.49-3,4.37-2.49l7.96,2.2c1.88.53,3,2.49,2.47,4.37ZM500.65,494.33l-15.9-4.39c-.38-.11-.59-.49-.49-.87s.49-.61.87-.51l15.9,4.39c.38.11.59.49.49.87-.08.38-.49.61-.87.51ZM501.41,491.58l-15.9-4.39c-.38-.11-.59-.49-.49-.87.11-.38.49-.61.87-.51l15.9,4.39c.38.11.59.51.49.87-.11.38-.49.61-.87.51ZM502.17,488.84l-15.9-4.39c-.38-.08-.61-.49-.51-.87.11-.38.51-.59.89-.49l15.9,4.37c.38.11.59.51.49.89-.11.38-.49.59-.87.49ZM502.99,485.82l-15.9-4.37c-.38-.11-.59-.51-.49-.89.11-.38.49-.59.87-.49l15.9,4.39c.38.08.59.49.51.87-.11.38-.51.59-.89.49ZM504.7,482.31c-.11.38-.51.61-.89.51l-15.88-4.39c-.38-.11-.61-.51-.51-.87.11-.38.51-.61.89-.51l15.88,4.39c.38.11.61.49.51.87ZM505.46,479.57c-.11.38-.51.61-.89.51l-15.9-4.39c-.36-.11-.59-.49-.49-.87.11-.38.49-.61.87-.51l15.9,4.39c.38.11.61.49.51.87ZM496.26,458.76l-10.86-3c1.31,3.02,1.75,6.59,1.1,10.73v.04c-2.83,11.15-7.92,29.23-10.48,38.08-.76,1.99-2.15,3.82-3.29,5.72-6.97,11.17-12.44,23.87-15.84,36.79-3.59,13.45-4.9,26.82-4.44,40.13.04,1.77-.06,3.23-.53,4.98-1.48,5.43-4.35,15.71-6.19,22.43-1.88,9.17-7.29,16.71-16.71,17.36-3.1.23-5.93-.44-8.87-1.31-3.74-1.01-10.52-2.89-14.66-4.03-12.42-2.3-19.24-12.29-15.12-25.11,1.75-6.36,6.36-23.06,8.74-31.72.63-2.37.95-3.42,1.88-5.11,11.07-18.21,18.18-39.81,19.64-61.08.34-4.05.3-8.22.44-12.23.06-1.88.89-4.27,1.48-6.55,2.18-7.81,5.72-20.74,7.88-28.51.93-3.78,2.05-6.97,4.14-9.78-4.12,2.13-7.37,5.91-8.7,10.73l-43.87,159.03c-2.56,9.21,2.89,18.78,12.1,21.31l49.04,13.54c9.23,2.53,18.78-2.89,21.33-12.1l43.87-159.01c2.56-9.21-2.87-18.78-12.1-21.33ZM488.65,535.11c-.53,1.9-2.47,3-4.37,2.49l-7.94-2.2c-1.9-.53-3-2.49-2.49-4.37.53-1.9,2.49-3,4.37-2.49l7.96,2.2c1.88.53,3,2.49,2.47,4.37ZM500.65,494.33l-15.9-4.39c-.38-.11-.59-.49-.49-.87s.49-.61.87-.51l15.9,4.39c.38.11.59.49.49.87-.08.38-.49.61-.87.51ZM501.41,491.58l-15.9-4.39c-.38-.11-.59-.49-.49-.87.11-.38.49-.61.87-.51l15.9,4.39c.38.11.59.51.49.87-.11.38-.49.61-.87.51ZM502.17,488.84l-15.9-4.39c-.38-.08-.61-.49-.51-.87.11-.38.51-.59.89-.49l15.9,4.37c.38.11.59.51.49.89-.11.38-.49.59-.87.49ZM502.99,485.82l-15.9-4.37c-.38-.11-.59-.51-.49-.89.11-.38.49-.59.87-.49l15.9,4.39c.38.08.59.49.51.87-.11.38-.51.59-.89.49ZM504.7,482.31c-.11.38-.51.61-.89.51l-15.88-4.39c-.38-.11-.61-.51-.51-.87.11-.38.51-.61.89-.51l15.88,4.39c.38.11.61.49.51.87ZM505.46,479.57c-.11.38-.51.61-.89.51l-15.9-4.39c-.36-.11-.59-.49-.49-.87.11-.38.49-.61.87-.51l15.9,4.39c.38.11.61.49.51.87ZM496.26,458.76l-10.86-3c1.31,3.02,1.75,6.59,1.1,10.73v.04c-2.83,11.15-7.92,29.23-10.48,38.08-.76,1.99-2.15,3.82-3.29,5.72-6.97,11.17-12.44,23.87-15.84,36.79-3.59,13.45-4.9,26.82-4.44,40.13.04,1.77-.06,3.23-.53,4.98-1.48,5.43-4.35,15.71-6.19,22.43-1.88,9.17-7.29,16.71-16.71,17.36-3.1.23-5.93-.44-8.87-1.31-3.74-1.01-10.52-2.89-14.66-4.03-12.42-2.3-19.24-12.29-15.12-25.11,1.75-6.36,6.36-23.06,8.74-31.72.63-2.37.95-3.42,1.88-5.11,11.07-18.21,18.18-39.81,19.64-61.08.34-4.05.3-8.22.44-12.23.06-1.88.89-4.27,1.48-6.55,2.18-7.81,5.72-20.74,7.88-28.51.93-3.78,2.05-6.97,4.14-9.78-4.12,2.13-7.37,5.91-8.7,10.73l-43.87,159.03c-2.56,9.21,2.89,18.78,12.1,21.31l49.04,13.54c9.23,2.53,18.78-2.89,21.33-12.1l43.87-159.01c2.56-9.21-2.87-18.78-12.1-21.33ZM488.65,535.11c-.53,1.9-2.47,3-4.37,2.49l-7.94-2.2c-1.9-.53-3-2.49-2.49-4.37.53-1.9,2.49-3,4.37-2.49l7.96,2.2c1.88.53,3,2.49,2.47,4.37ZM500.65,494.33l-15.9-4.39c-.38-.11-.59-.49-.49-.87s.49-.61.87-.51l15.9,4.39c.38.11.59.49.49.87-.08.38-.49.61-.87.51ZM501.41,491.58l-15.9-4.39c-.38-.11-.59-.49-.49-.87.11-.38.49-.61.87-.51l15.9,4.39c.38.11.59.51.49.87-.11.38-.49.61-.87.51ZM502.17,488.84l-15.9-4.39c-.38-.08-.61-.49-.51-.87.11-.38.51-.59.89-.49l15.9,4.37c.38.11.59.51.49.89-.11.38-.49.59-.87.49ZM502.99,485.82l-15.9-4.37c-.38-.11-.59-.51-.49-.89.11-.38.49-.59.87-.49l15.9,4.39c.38.08.59.49.51.87-.11.38-.51.59-.89.49ZM504.7,482.31c-.11.38-.51.61-.89.51l-15.88-4.39c-.38-.11-.61-.51-.51-.87.11-.38.51-.61.89-.51l15.88,4.39c.38.11.61.49.51.87ZM505.46,479.57c-.11.38-.51.61-.89.51l-15.9-4.39c-.36-.11-.59-.49-.49-.87.11-.38.49-.61.87-.51l15.9,4.39c.38.11.61.49.51.87ZM496.26,458.76l-10.86-3c1.31,3.02,1.75,6.59,1.1,10.73v.04c-2.83,11.15-7.92,29.23-10.48,38.08-.76,1.99-2.15,3.82-3.29,5.72-6.97,11.17-12.44,23.87-15.84,36.79-3.59,13.45-4.9,26.82-4.44,40.13.04,1.77-.06,3.23-.53,4.98-1.48,5.43-4.35,15.71-6.19,22.43-1.88,9.17-7.29,16.71-16.71,17.36-3.1.23-5.93-.44-8.87-1.31-3.74-1.01-10.52-2.89-14.66-4.03-12.42-2.3-19.24-12.29-15.12-25.11,1.75-6.36,6.36-23.06,8.74-31.72.63-2.37.95-3.42,1.88-5.11,11.07-18.21,18.18-39.81,19.64-61.08.34-4.05.3-8.22.44-12.23.06-1.88.89-4.27,1.48-6.55,2.18-7.81,5.72-20.74,7.88-28.51.93-3.78,2.05-6.97,4.14-9.78-4.12,2.13-7.37,5.91-8.7,10.73l-43.87,159.03c-2.56,9.21,2.89,18.78,12.1,21.31l49.04,13.54c9.23,2.53,18.78-2.89,21.33-12.1l43.87-159.01c2.56-9.21-2.87-18.78-12.1-21.33ZM488.65,535.11c-.53,1.9-2.47,3-4.37,2.49l-7.94-2.2c-1.9-.53-3-2.49-2.49-4.37.53-1.9,2.49-3,4.37-2.49l7.96,2.2c1.88.53,3,2.49,2.47,4.37ZM500.65,494.33l-15.9-4.39c-.38-.11-.59-.49-.49-.87s.49-.61.87-.51l15.9,4.39c.38.11.59.49.49.87-.08.38-.49.61-.87.51ZM501.41,491.58l-15.9-4.39c-.38-.11-.59-.49-.49-.87.11-.38.49-.61.87-.51l15.9,4.39c.38.11.59.51.49.87-.11.38-.49.61-.87.51ZM502.17,488.84l-15.9-4.39c-.38-.08-.61-.49-.51-.87.11-.38.51-.59.89-.49l15.9,4.37c.38.11.59.51.49.89-.11.38-.49.59-.87.49ZM502.99,485.82l-15.9-4.37c-.38-.11-.59-.51-.49-.89.11-.38.49-.59.87-.49l15.9,4.39c.38.08.59.49.51.87-.11.38-.51.59-.89.49ZM504.7,482.31c-.11.38-.51.61-.89.51l-15.88-4.39c-.38-.11-.61-.51-.51-.87.11-.38.51-.61.89-.51l15.88,4.39c.38.11.61.49.51.87ZM505.46,479.57c-.11.38-.51.61-.89.51l-15.9-4.39c-.36-.11-.59-.49-.49-.87.11-.38.49-.61.87-.51l15.9,4.39c.38.11.61.49.51.87ZM496.26,458.76l-10.86-3c1.31,3.02,1.75,6.59,1.1,10.73v.04c-2.83,11.15-7.92,29.23-10.48,38.08-.76,1.99-2.15,3.82-3.29,5.72-6.97,11.17-12.44,23.87-15.84,36.79-3.59,13.45-4.9,26.82-4.44,40.13.04,1.77-.06,3.23-.53,4.98-1.48,5.43-4.35,15.71-6.19,22.43-1.88,9.17-7.29,16.71-16.71,17.36-3.1.23-5.93-.44-8.87-1.31-3.74-1.01-10.52-2.89-14.66-4.03-12.42-2.3-19.24-12.29-15.12-25.11,1.75-6.36,6.36-23.06,8.74-31.72.63-2.37.95-3.42,1.88-5.11,11.07-18.21,18.18-39.81,19.64-61.08.34-4.05.3-8.22.44-12.23.06-1.88.89-4.27,1.48-6.55,2.18-7.81,5.72-20.74,7.88-28.51.93-3.78,2.05-6.97,4.14-9.78-4.12,2.13-7.37,5.91-8.7,10.73l-43.87,159.03c-2.56,9.21,2.89,18.78,12.1,21.31l49.04,13.54c9.23,2.53,18.78-2.89,21.33-12.1l43.87-159.01c2.56-9.21-2.87-18.78-12.1-21.33ZM488.65,535.11c-.53,1.9-2.47,3-4.37,2.49l-7.94-2.2c-1.9-.53-3-2.49-2.49-4.37.53-1.9,2.49-3,4.37-2.49l7.96,2.2c1.88.53,3,2.49,2.47,4.37ZM500.65,494.33l-15.9-4.39c-.38-.11-.59-.49-.49-.87s.49-.61.87-.51l15.9,4.39c.38.11.59.49.49.87-.08.38-.49.61-.87.51ZM501.41,491.58l-15.9-4.39c-.38-.11-.59-.49-.49-.87.11-.38.49-.61.87-.51l15.9,4.39c.38.11.59.51.49.87-.11.38-.49.61-.87.51ZM502.17,488.84l-15.9-4.39c-.38-.08-.61-.49-.51-.87.11-.38.51-.59.89-.49l15.9,4.37c.38.11.59.51.49.89-.11.38-.49.59-.87.49ZM502.99,485.82l-15.9-4.37c-.38-.11-.59-.51-.49-.89.11-.38.49-.59.87-.49l15.9,4.39c.38.08.59.49.51.87-.11.38-.51.59-.89.49ZM504.7,482.31c-.11.38-.51.61-.89.51l-15.88-4.39c-.38-.11-.61-.51-.51-.87.11-.38.51-.61.89-.51l15.88,4.39c.38.11.61.49.51.87ZM505.46,479.57c-.11.38-.51.61-.89.51l-15.9-4.39c-.36-.11-.59-.49-.49-.87.11-.38.49-.61.87-.51l15.9,4.39c.38.11.61.49.51.87ZM496.26,458.76l-10.86-3c1.31,3.02,1.75,6.59,1.1,10.73v.04c-2.83,11.15-7.92,29.23-10.48,38.08-.76,1.99-2.15,3.82-3.29,5.72-6.97,11.17-12.44,23.87-15.84,36.79-3.59,13.45-4.9,26.82-4.44,40.13.04,1.77-.06,3.23-.53,4.98-1.48,5.43-4.35,15.71-6.19,22.43-1.88,9.17-7.29,16.71-16.71,17.36-3.1.23-5.93-.44-8.87-1.31-3.74-1.01-10.52-2.89-14.66-4.03-12.42-2.3-19.24-12.29-15.12-25.11,1.75-6.36,6.36-23.06,8.74-31.72.63-2.37.95-3.42,1.88-5.11,11.07-18.21,18.18-39.81,19.64-61.08.34-4.05.3-8.22.44-12.23.06-1.88.89-4.27,1.48-6.55,2.18-7.81,5.72-20.74,7.88-28.51.93-3.78,2.05-6.97,4.14-9.78-4.12,2.13-7.37,5.91-8.7,10.73l-43.87,159.03c-2.56,9.21,2.89,18.78,12.1,21.31l49.04,13.54c9.23,2.53,18.78-2.89,21.33-12.1l43.87-159.01c2.56-9.21-2.87-18.78-12.1-21.33ZM488.65,535.11c-.53,1.9-2.47,3-4.37,2.49l-7.94-2.2c-1.9-.53-3-2.49-2.49-4.37.53-1.9,2.49-3,4.37-2.49l7.96,2.2c1.88.53,3,2.49,2.47,4.37ZM500.65,494.33l-15.9-4.39c-.38-.11-.59-.49-.49-.87s.49-.61.87-.51l15.9,4.39c.38.11.59.49.49.87-.08.38-.49.61-.87.51ZM501.41,491.58l-15.9-4.39c-.38-.11-.59-.49-.49-.87.11-.38.49-.61.87-.51l15.9,4.39c.38.11.59.51.49.87-.11.38-.49.61-.87.51ZM502.17,488.84l-15.9-4.39c-.38-.08-.61-.49-.51-.87.11-.38.51-.59.89-.49l15.9,4.37c.38.11.59.51.49.89-.11.38-.49.59-.87.49ZM502.99,485.82l-15.9-4.37c-.38-.11-.59-.51-.49-.89.11-.38.49-.59.87-.49l15.9,4.39c.38.08.59.49.51.87-.11.38-.51.59-.89.49ZM504.7,482.31c-.11.38-.51.61-.89.51l-15.88-4.39c-.38-.11-.61-.51-.51-.87.11-.38.51-.61.89-.51l15.88,4.39c.38.11.61.49.51.87ZM505.46,479.57c-.11.38-.51.61-.89.51l-15.9-4.39c-.36-.11-.59-.49-.49-.87.11-.38.49-.61.87-.51l15.9,4.39c.38.11.61.49.51.87ZM496.26,458.76l-10.86-3c1.31,3.02,1.75,6.59,1.1,10.73v.04c-2.83,11.15-7.92,29.23-10.48,38.08-.76,1.99-2.15,3.82-3.29,5.72-6.97,11.17-12.44,23.87-15.84,36.79-3.59,13.45-4.9,26.82-4.44,40.13.04,1.77-.06,3.23-.53,4.98-1.48,5.43-4.35,15.71-6.19,22.43-1.88,9.17-7.29,16.71-16.71,17.36-3.1.23-5.93-.44-8.87-1.31-3.74-1.01-10.52-2.89-14.66-4.03-12.42-2.3-19.24-12.29-15.12-25.11,1.75-6.36,6.36-23.06,8.74-31.72.63-2.37.95-3.42,1.88-5.11,11.07-18.21,18.18-39.81,19.64-61.08.34-4.05.3-8.22.44-12.23.06-1.88.89-4.27,1.48-6.55,2.18-7.81,5.72-20.74,7.88-28.51.93-3.78,2.05-6.97,4.14-9.78-4.12,2.13-7.37,5.91-8.7,10.73l-43.87,159.03c-2.56,9.21,2.89,18.78,12.1,21.31l49.04,13.54c9.23,2.53,18.78-2.89,21.33-12.1l43.87-159.01c2.56-9.21-2.87-18.78-12.1-21.33ZM488.65,535.11c-.53,1.9-2.47,3-4.37,2.49l-7.94-2.2c-1.9-.53-3-2.49-2.49-4.37.53-1.9,2.49-3,4.37-2.49l7.96,2.2c1.88.53,3,2.49,2.47,4.37ZM500.65,494.33l-15.9-4.39c-.38-.11-.59-.49-.49-.87s.49-.61.87-.51l15.9,4.39c.38.11.59.49.49.87-.08.38-.49.61-.87.51ZM501.41,491.58l-15.9-4.39c-.38-.11-.59-.49-.49-.87.11-.38.49-.61.87-.51l15.9,4.39c.38.11.59.51.49.87-.11.38-.49.61-.87.51ZM502.17,488.84l-15.9-4.39c-.38-.08-.61-.49-.51-.87.11-.38.51-.59.89-.49l15.9,4.37c.38.11.59.51.49.89-.11.38-.49.59-.87.49ZM502.99,485.82l-15.9-4.37c-.38-.11-.59-.51-.49-.89.11-.38.49-.59.87-.49l15.9,4.39c.38.08.59.49.51.87-.11.38-.51.59-.89.49ZM504.7,482.31c-.11.38-.51.61-.89.51l-15.88-4.39c-.38-.11-.61-.51-.51-.87.11-.38.51-.61.89-.51l15.88,4.39c.38.11.61.49.51.87ZM505.46,479.57c-.11.38-.51.61-.89.51l-15.9-4.39c-.36-.11-.59-.49-.49-.87.11-.38.49-.61.87-.51l15.9,4.39c.38.11.61.49.51.87ZM496.26,458.76l-10.86-3c1.31,3.02,1.75,6.59,1.1,10.73v.04c-2.83,11.15-7.92,29.23-10.48,38.08-.76,1.99-2.15,3.82-3.29,5.72-6.97,11.17-12.44,23.87-15.84,36.79-3.59,13.45-4.9,26.82-4.44,40.13.04,1.77-.06,3.23-.53,4.98-1.48,5.43-4.35,15.71-6.19,22.43-1.88,9.17-7.29,16.71-16.71,17.36-3.1.23-5.93-.44-8.87-1.31-3.74-1.01-10.52-2.89-14.66-4.03-12.42-2.3-19.24-12.29-15.12-25.11,1.75-6.36,6.36-23.06,8.74-31.72.63-2.37.95-3.42,1.88-5.11,11.07-18.21,18.18-39.81,19.64-61.08.34-4.05.3-8.22.44-12.23.06-1.88.89-4.27,1.48-6.55,2.18-7.81,5.72-20.74,7.88-28.51.93-3.78,2.05-6.97,4.14-9.78-4.12,2.13-7.37,5.91-8.7,10.73l-43.87,159.03c-2.56,9.21,2.89,18.78,12.1,21.31l49.04,13.54c9.23,2.53,18.78-2.89,21.33-12.1l43.87-159.01c2.56-9.21-2.87-18.78-12.1-21.33ZM488.65,535.11c-.53,1.9-2.47,3-4.37,2.49l-7.94-2.2c-1.9-.53-3-2.49-2.49-4.37.53-1.9,2.49-3,4.37-2.49l7.96,2.2c1.88.53,3,2.49,2.47,4.37ZM500.65,494.33l-15.9-4.39c-.38-.11-.59-.49-.49-.87s.49-.61.87-.51l15.9,4.39c.38.11.59.49.49.87-.08.38-.49.61-.87.51ZM501.41,491.58l-15.9-4.39c-.38-.11-.59-.49-.49-.87.11-.38.49-.61.87-.51l15.9,4.39c.38.11.59.51.49.87-.11.38-.49.61-.87.51ZM502.17,488.84l-15.9-4.39c-.38-.08-.61-.49-.51-.87.11-.38.51-.59.89-.49l15.9,4.37c.38.11.59.51.49.89-.11.38-.49.59-.87.49ZM502.99,485.82l-15.9-4.37c-.38-.11-.59-.51-.49-.89.11-.38.49-.59.87-.49l15.9,4.39c.38.08.59.49.51.87-.11.38-.51.59-.89.49ZM504.7,482.31c-.11.38-.51.61-.89.51l-15.88-4.39c-.38-.11-.61-.51-.51-.87.11-.38.51-.61.89-.51l15.88,4.39c.38.11.61.49.51.87ZM505.46,479.57c-.11.38-.51.61-.89.51l-15.9-4.39c-.36-.11-.59-.49-.49-.87.11-.38.49-.61.87-.51l15.9,4.39c.38.11.61.49.51.87ZM496.26,458.76l-10.86-3c1.31,3.02,1.75,6.59,1.1,10.73v.04c-2.83,11.15-7.92,29.23-10.48,38.08-.76,1.99-2.15,3.82-3.29,5.72-6.97,11.17-12.44,23.87-15.84,36.79-3.59,13.45-4.9,26.82-4.44,40.13.04,1.77-.06,3.23-.53,4.98-1.48,5.43-4.35,15.71-6.19,22.43-1.88,9.17-7.29,16.71-16.71,17.36-3.1.23-5.93-.44-8.87-1.31-3.74-1.01-10.52-2.89-14.66-4.03-12.42-2.3-19.24-12.29-15.12-25.11,1.75-6.36,6.36-23.06,8.74-31.72.63-2.37.95-3.42,1.88-5.11,11.07-18.21,18.18-39.81,19.64-61.08.34-4.05.3-8.22.44-12.23.06-1.88.89-4.27,1.48-6.55,2.18-7.81,5.72-20.74,7.88-28.51.93-3.78,2.05-6.97,4.14-9.78-4.12,2.13-7.37,5.91-8.7,10.73l-43.87,159.03c-2.56,9.21,2.89,18.78,12.1,21.31l49.04,13.54c9.23,2.53,18.78-2.89,21.33-12.1l43.87-159.01c2.56-9.21-2.87-18.78-12.1-21.33ZM488.65,535.11c-.53,1.9-2.47,3-4.37,2.49l-7.94-2.2c-1.9-.53-3-2.49-2.49-4.37.53-1.9,2.49-3,4.37-2.49l7.96,2.2c1.88.53,3,2.49,2.47,4.37ZM500.65,494.33l-15.9-4.39c-.38-.11-.59-.49-.49-.87s.49-.61.87-.51l15.9,4.39c.38.11.59.49.49.87-.08.38-.49.61-.87.51ZM501.41,491.58l-15.9-4.39c-.38-.11-.59-.49-.49-.87.11-.38.49-.61.87-.51l15.9,4.39c.38.11.59.51.49.87-.11.38-.49.61-.87.51ZM502.17,488.84l-15.9-4.39c-.38-.08-.61-.49-.51-.87.11-.38.51-.59.89-.49l15.9,4.37c.38.11.59.51.49.89-.11.38-.49.59-.87.49ZM502.99,485.82l-15.9-4.37c-.38-.11-.59-.51-.49-.89.11-.38.49-.59.87-.49l15.9,4.39c.38.08.59.49.51.87-.11.38-.51.59-.89.49ZM504.7,482.31c-.11.38-.51.61-.89.51l-15.88-4.39c-.38-.11-.61-.51-.51-.87.11-.38.51-.61.89-.51l15.88,4.39c.38.11.61.49.51.87ZM505.46,479.57c-.11.38-.51.61-.89.51l-15.9-4.39c-.36-.11-.59-.49-.49-.87.11-.38.49-.61.87-.51l15.9,4.39c.38.11.61.49.51.87ZM496.26,458.76l-10.86-3c1.31,3.02,1.75,6.59,1.1,10.73v.04c-2.83,11.15-7.92,29.23-10.48,38.08-.76,1.99-2.15,3.82-3.29,5.72-6.97,11.17-12.44,23.87-15.84,36.79-3.59,13.45-4.9,26.82-4.44,40.13.04,1.77-.06,3.23-.53,4.98-1.48,5.43-4.35,15.71-6.19,22.43-1.88,9.17-7.29,16.71-16.71,17.36-3.1.23-5.93-.44-8.87-1.31-3.74-1.01-10.52-2.89-14.66-4.03-12.42-2.3-19.24-12.29-15.12-25.11,1.75-6.36,6.36-23.06,8.74-31.72.63-2.37.95-3.42,1.88-5.11,11.07-18.21,18.18-39.81,19.64-61.08.34-4.05.3-8.22.44-12.23.06-1.88.89-4.27,1.48-6.55,2.18-7.81,5.72-20.74,7.88-28.51.93-3.78,2.05-6.97,4.14-9.78-4.12,2.13-7.37,5.91-8.7,10.73l-43.87,159.03c-2.56,9.21,2.89,18.78,12.1,21.31l49.04,13.54c9.23,2.53,18.78-2.89,21.33-12.1l43.87-159.01c2.56-9.21-2.87-18.78-12.1-21.33ZM488.65,535.11c-.53,1.9-2.47,3-4.37,2.49l-7.94-2.2c-1.9-.53-3-2.49-2.49-4.37.53-1.9,2.49-3,4.37-2.49l7.96,2.2c1.88.53,3,2.49,2.47,4.37ZM500.65,494.33l-15.9-4.39c-.38-.11-.59-.49-.49-.87s.49-.61.87-.51l15.9,4.39c.38.11.59.49.49.87-.08.38-.49.61-.87.51ZM501.41,491.58l-15.9-4.39c-.38-.11-.59-.49-.49-.87.11-.38.49-.61.87-.51l15.9,4.39c.38.11.59.51.49.87-.11.38-.49.61-.87.51ZM502.17,488.84l-15.9-4.39c-.38-.08-.61-.49-.51-.87.11-.38.51-.59.89-.49l15.9,4.37c.38.11.59.51.49.89-.11.38-.49.59-.87.49ZM502.99,485.82l-15.9-4.37c-.38-.11-.59-.51-.49-.89.11-.38.49-.59.87-.49l15.9,4.39c.38.08.59.49.51.87-.11.38-.51.59-.89.49ZM504.7,482.31c-.11.38-.51.61-.89.51l-15.88-4.39c-.38-.11-.61-.51-.51-.87.11-.38.51-.61.89-.51l15.88,4.39c.38.11.61.49.51.87ZM505.46,479.57c-.11.38-.51.61-.89.51l-15.9-4.39c-.36-.11-.59-.49-.49-.87.11-.38.49-.61.87-.51l15.9,4.39c.38.11.61.49.51.87ZM496.26,458.76l-10.86-3c1.31,3.02,1.75,6.59,1.1,10.73v.04c-2.83,11.15-7.92,29.23-10.48,38.08-.76,1.99-2.15,3.82-3.29,5.72-6.97,11.17-12.44,23.87-15.84,36.79-3.59,13.45-4.9,26.82-4.44,40.13.04,1.77-.06,3.23-.53,4.98-1.48,5.43-4.35,15.71-6.19,22.43-1.88,9.17-7.29,16.71-16.71,17.36-3.1.23-5.93-.44-8.87-1.31-3.74-1.01-10.52-2.89-14.66-4.03-12.42-2.3-19.24-12.29-15.12-25.11,1.75-6.36,6.36-23.06,8.74-31.72.63-2.37.95-3.42,1.88-5.11,11.07-18.21,18.18-39.81,19.64-61.08.34-4.05.3-8.22.44-12.23.06-1.88.89-4.27,1.48-6.55,2.18-7.81,5.72-20.74,7.88-28.51.93-3.78,2.05-6.97,4.14-9.78-4.12,2.13-7.37,5.91-8.7,10.73l-43.87,159.03c-2.56,9.21,2.89,18.78,12.1,21.31l49.04,13.54c9.23,2.53,18.78-2.89,21.33-12.1l43.87-159.01c2.56-9.21-2.87-18.78-12.1-21.33ZM488.65,535.11c-.53,1.9-2.47,3-4.37,2.49l-7.94-2.2c-1.9-.53-3-2.49-2.49-4.37.53-1.9,2.49-3,4.37-2.49l7.96,2.2c1.88.53,3,2.49,2.47,4.37ZM500.65,494.33l-15.9-4.39c-.38-.11-.59-.49-.49-.87s.49-.61.87-.51l15.9,4.39c.38.11.59.49.49.87-.08.38-.49.61-.87.51ZM501.41,491.58l-15.9-4.39c-.38-.11-.59-.49-.49-.87.11-.38.49-.61.87-.51l15.9,4.39c.38.11.59.51.49.87-.11.38-.49.61-.87.51ZM502.17,488.84l-15.9-4.39c-.38-.08-.61-.49-.51-.87.11-.38.51-.59.89-.49l15.9,4.37c.38.11.59.51.49.89-.11.38-.49.59-.87.49ZM502.99,485.82l-15.9-4.37c-.38-.11-.59-.51-.49-.89.11-.38.49-.59.87-.49l15.9,4.39c.38.08.59.49.51.87-.11.38-.51.59-.89.49ZM504.7,482.31c-.11.38-.51.61-.89.51l-15.88-4.39c-.38-.11-.61-.51-.51-.87.11-.38.51-.61.89-.51l15.88,4.39c.38.11.61.49.51.87ZM505.46,479.57c-.11.38-.51.61-.89.51l-15.9-4.39c-.36-.11-.59-.49-.49-.87.11-.38.49-.61.87-.51l15.9,4.39c.38.11.61.49.51.87ZM496.26,458.76l-10.86-3c1.31,3.02,1.75,6.59,1.1,10.73v.04c-2.83,11.15-7.92,29.23-10.48,38.08-.76,1.99-2.15,3.82-3.29,5.72-6.97,11.17-12.44,23.87-15.84,36.79-3.59,13.45-4.9,26.82-4.44,40.13.04,1.77-.06,3.23-.53,4.98-1.48,5.43-4.35,15.71-6.19,22.43-1.88,9.17-7.29,16.71-16.71,17.36-3.1.23-5.93-.44-8.87-1.31-3.74-1.01-10.52-2.89-14.66-4.03-12.42-2.3-19.24-12.29-15.12-25.11,1.75-6.36,6.36-23.06,8.74-31.72.63-2.37.95-3.42,1.88-5.11,11.07-18.21,18.18-39.81,19.64-61.08.34-4.05.3-8.22.44-12.23.06-1.88.89-4.27,1.48-6.55,2.18-7.81,5.72-20.74,7.88-28.51.93-3.78,2.05-6.97,4.14-9.78-4.12,2.13-7.37,5.91-8.7,10.73l-43.87,159.03c-2.56,9.21,2.89,18.78,12.1,21.31l49.04,13.54c9.23,2.53,18.78-2.89,21.33-12.1l43.87-159.01c2.56-9.21-2.87-18.78-12.1-21.33ZM488.65,535.11c-.53,1.9-2.47,3-4.37,2.49l-7.94-2.2c-1.9-.53-3-2.49-2.49-4.37.53-1.9,2.49-3,4.37-2.49l7.96,2.2c1.88.53,3,2.49,2.47,4.37ZM500.65,494.33l-15.9-4.39c-.38-.11-.59-.49-.49-.87s.49-.61.87-.51l15.9,4.39c.38.11.59.49.49.87-.08.38-.49.61-.87.51ZM501.41,491.58l-15.9-4.39c-.38-.11-.59-.49-.49-.87.11-.38.49-.61.87-.51l15.9,4.39c.38.11.59.51.49.87-.11.38-.49.61-.87.51ZM502.17,488.84l-15.9-4.39c-.38-.08-.61-.49-.51-.87.11-.38.51-.59.89-.49l15.9,4.37c.38.11.59.51.49.89-.11.38-.49.59-.87.49ZM502.99,485.82l-15.9-4.37c-.38-.11-.59-.51-.49-.89.11-.38.49-.59.87-.49l15.9,4.39c.38.08.59.49.51.87-.11.38-.51.59-.89.49ZM504.7,482.31c-.11.38-.51.61-.89.51l-15.88-4.39c-.38-.11-.61-.51-.51-.87.11-.38.51-.61.89-.51l15.88,4.39c.38.11.61.49.51.87ZM505.46,479.57c-.11.38-.51.61-.89.51l-15.9-4.39c-.36-.11-.59-.49-.49-.87.11-.38.49-.61.87-.51l15.9,4.39c.38.11.61.49.51.87ZM343.33,407.34v360.66c181.38-100.55,253.16-254.51,281.57-360.66h-281.57ZM468.33,640.16c-3.13,11.34-14.89,18.02-26.23,14.89l-49.04-13.54c-11.34-3.13-18.01-14.89-14.89-26.23l43.87-159.01c2.6-9.4,11.15-15.61,20.46-15.65,3.76-1.31,7.98-1.27,11.64-.11,4.65,1.22,10.88,3.02,15.82,4.35,4.77.91,8.93,2.87,11.91,5.79l15.46,4.27c11.34,3.13,18.02,14.89,14.89,26.23l-43.89,159.01ZM496.26,458.76l-10.86-3c1.31,3.02,1.75,6.59,1.1,10.73v.04c-2.83,11.15-7.92,29.23-10.48,38.08-.76,1.99-2.15,3.82-3.29,5.72-6.97,11.17-12.44,23.87-15.84,36.79-3.59,13.45-4.9,26.82-4.44,40.13.04,1.77-.06,3.23-.53,4.98-1.48,5.43-4.35,15.71-6.19,22.43-1.88,9.17-7.29,16.71-16.71,17.36-3.1.23-5.93-.44-8.87-1.31-3.74-1.01-10.52-2.89-14.66-4.03-12.42-2.3-19.24-12.29-15.12-25.11,1.75-6.36,6.36-23.06,8.74-31.72.63-2.37.95-3.42,1.88-5.11,11.07-18.21,18.18-39.81,19.64-61.08.34-4.05.3-8.22.44-12.23.06-1.88.89-4.27,1.48-6.55,2.18-7.81,5.72-20.74,7.88-28.51.93-3.78,2.05-6.97,4.14-9.78-4.12,2.13-7.37,5.91-8.7,10.73l-43.87,159.03c-2.56,9.21,2.89,18.78,12.1,21.31l49.04,13.54c9.23,2.53,18.78-2.89,21.33-12.1l43.87-159.01c2.56-9.21-2.87-18.78-12.1-21.33ZM488.65,535.11c-.53,1.9-2.47,3-4.37,2.49l-7.94-2.2c-1.9-.53-3-2.49-2.49-4.37.53-1.9,2.49-3,4.37-2.49l7.96,2.2c1.88.53,3,2.49,2.47,4.37ZM500.65,494.33l-15.9-4.39c-.38-.11-.59-.49-.49-.87s.49-.61.87-.51l15.9,4.39c.38.11.59.49.49.87-.08.38-.49.61-.87.51ZM501.41,491.58l-15.9-4.39c-.38-.11-.59-.49-.49-.87.11-.38.49-.61.87-.51l15.9,4.39c.38.11.59.51.49.87-.11.38-.49.61-.87.51ZM502.17,488.84l-15.9-4.39c-.38-.08-.61-.49-.51-.87.11-.38.51-.59.89-.49l15.9,4.37c.38.11.59.51.49.89-.11.38-.49.59-.87.49ZM502.99,485.82l-15.9-4.37c-.38-.11-.59-.51-.49-.89.11-.38.49-.59.87-.49l15.9,4.39c.38.08.59.49.51.87-.11.38-.51.59-.89.49ZM504.7,482.31c-.11.38-.51.61-.89.51l-15.88-4.39c-.38-.11-.61-.51-.51-.87.11-.38.51-.61.89-.51l15.88,4.39c.38.11.61.49.51.87ZM505.46,479.57c-.11.38-.51.61-.89.51l-15.9-4.39c-.36-.11-.59-.49-.49-.87.11-.38.49-.61.87-.51l15.9,4.39c.38.11.61.49.51.87ZM496.26,458.76l-10.86-3c1.31,3.02,1.75,6.59,1.1,10.73v.04c-2.83,11.15-7.92,29.23-10.48,38.08-.76,1.99-2.15,3.82-3.29,5.72-6.97,11.17-12.44,23.87-15.84,36.79-3.59,13.45-4.9,26.82-4.44,40.13.04,1.77-.06,3.23-.53,4.98-1.48,5.43-4.35,15.71-6.19,22.43-1.88,9.17-7.29,16.71-16.71,17.36-3.1.23-5.93-.44-8.87-1.31-3.74-1.01-10.52-2.89-14.66-4.03-12.42-2.3-19.24-12.29-15.12-25.11,1.75-6.36,6.36-23.06,8.74-31.72.63-2.37.95-3.42,1.88-5.11,11.07-18.21,18.18-39.81,19.64-61.08.34-4.05.3-8.22.44-12.23.06-1.88.89-4.27,1.48-6.55,2.18-7.81,5.72-20.74,7.88-28.51.93-3.78,2.05-6.97,4.14-9.78-4.12,2.13-7.37,5.91-8.7,10.73l-43.87,159.03c-2.56,9.21,2.89,18.78,12.1,21.31l49.04,13.54c9.23,2.53,18.78-2.89,21.33-12.1l43.87-159.01c2.56-9.21-2.87-18.78-12.1-21.33ZM488.65,535.11c-.53,1.9-2.47,3-4.37,2.49l-7.94-2.2c-1.9-.53-3-2.49-2.49-4.37.53-1.9,2.49-3,4.37-2.49l7.96,2.2c1.88.53,3,2.49,2.47,4.37ZM500.65,494.33l-15.9-4.39c-.38-.11-.59-.49-.49-.87s.49-.61.87-.51l15.9,4.39c.38.11.59.49.49.87-.08.38-.49.61-.87.51ZM501.41,491.58l-15.9-4.39c-.38-.11-.59-.49-.49-.87.11-.38.49-.61.87-.51l15.9,4.39c.38.11.59.51.49.87-.11.38-.49.61-.87.51ZM502.17,488.84l-15.9-4.39c-.38-.08-.61-.49-.51-.87.11-.38.51-.59.89-.49l15.9,4.37c.38.11.59.51.49.89-.11.38-.49.59-.87.49ZM502.99,485.82l-15.9-4.37c-.38-.11-.59-.51-.49-.89.11-.38.49-.59.87-.49l15.9,4.39c.38.08.59.49.51.87-.11.38-.51.59-.89.49ZM504.7,482.31c-.11.38-.51.61-.89.51l-15.88-4.39c-.38-.11-.61-.51-.51-.87.11-.38.51-.61.89-.51l15.88,4.39c.38.11.61.49.51.87ZM505.46,479.57c-.11.38-.51.61-.89.51l-15.9-4.39c-.36-.11-.59-.49-.49-.87.11-.38.49-.61.87-.51l15.9,4.39c.38.11.61.49.51.87ZM496.26,458.76l-10.86-3c1.31,3.02,1.75,6.59,1.1,10.73v.04c-2.83,11.15-7.92,29.23-10.48,38.08-.76,1.99-2.15,3.82-3.29,5.72-6.97,11.17-12.44,23.87-15.84,36.79-3.59,13.45-4.9,26.82-4.44,40.13.04,1.77-.06,3.23-.53,4.98-1.48,5.43-4.35,15.71-6.19,22.43-1.88,9.17-7.29,16.71-16.71,17.36-3.1.23-5.93-.44-8.87-1.31-3.74-1.01-10.52-2.89-14.66-4.03-12.42-2.3-19.24-12.29-15.12-25.11,1.75-6.36,6.36-23.06,8.74-31.72.63-2.37.95-3.42,1.88-5.11,11.07-18.21,18.18-39.81,19.64-61.08.34-4.05.3-8.22.44-12.23.06-1.88.89-4.27,1.48-6.55,2.18-7.81,5.72-20.74,7.88-28.51.93-3.78,2.05-6.97,4.14-9.78-4.12,2.13-7.37,5.91-8.7,10.73l-43.87,159.03c-2.56,9.21,2.89,18.78,12.1,21.31l49.04,13.54c9.23,2.53,18.78-2.89,21.33-12.1l43.87-159.01c2.56-9.21-2.87-18.78-12.1-21.33ZM488.65,535.11c-.53,1.9-2.47,3-4.37,2.49l-7.94-2.2c-1.9-.53-3-2.49-2.49-4.37.53-1.9,2.49-3,4.37-2.49l7.96,2.2c1.88.53,3,2.49,2.47,4.37ZM500.65,494.33l-15.9-4.39c-.38-.11-.59-.49-.49-.87s.49-.61.87-.51l15.9,4.39c.38.11.59.49.49.87-.08.38-.49.61-.87.51ZM501.41,491.58l-15.9-4.39c-.38-.11-.59-.49-.49-.87.11-.38.49-.61.87-.51l15.9,4.39c.38.11.59.51.49.87-.11.38-.49.61-.87.51ZM502.17,488.84l-15.9-4.39c-.38-.08-.61-.49-.51-.87.11-.38.51-.59.89-.49l15.9,4.37c.38.11.59.51.49.89-.11.38-.49.59-.87.49ZM502.99,485.82l-15.9-4.37c-.38-.11-.59-.51-.49-.89.11-.38.49-.59.87-.49l15.9,4.39c.38.08.59.49.51.87-.11.38-.51.59-.89.49ZM504.7,482.31c-.11.38-.51.61-.89.51l-15.88-4.39c-.38-.11-.61-.51-.51-.87.11-.38.51-.61.89-.51l15.88,4.39c.38.11.61.49.51.87ZM505.46,479.57c-.11.38-.51.61-.89.51l-15.9-4.39c-.36-.11-.59-.49-.49-.87.11-.38.49-.61.87-.51l15.9,4.39c.38.11.61.49.51.87ZM496.26,458.76l-10.86-3c1.31,3.02,1.75,6.59,1.1,10.73v.04c-2.83,11.15-7.92,29.23-10.48,38.08-.76,1.99-2.15,3.82-3.29,5.72-6.97,11.17-12.44,23.87-15.84,36.79-3.59,13.45-4.9,26.82-4.44,40.13.04,1.77-.06,3.23-.53,4.98-1.48,5.43-4.35,15.71-6.19,22.43-1.88,9.17-7.29,16.71-16.71,17.36-3.1.23-5.93-.44-8.87-1.31-3.74-1.01-10.52-2.89-14.66-4.03-12.42-2.3-19.24-12.29-15.12-25.11,1.75-6.36,6.36-23.06,8.74-31.72.63-2.37.95-3.42,1.88-5.11,11.07-18.21,18.18-39.81,19.64-61.08.34-4.05.3-8.22.44-12.23.06-1.88.89-4.27,1.48-6.55,2.18-7.81,5.72-20.74,7.88-28.51.93-3.78,2.05-6.97,4.14-9.78-4.12,2.13-7.37,5.91-8.7,10.73l-43.87,159.03c-2.56,9.21,2.89,18.78,12.1,21.31l49.04,13.54c9.23,2.53,18.78-2.89,21.33-12.1l43.87-159.01c2.56-9.21-2.87-18.78-12.1-21.33ZM488.65,535.11c-.53,1.9-2.47,3-4.37,2.49l-7.94-2.2c-1.9-.53-3-2.49-2.49-4.37.53-1.9,2.49-3,4.37-2.49l7.96,2.2c1.88.53,3,2.49,2.47,4.37ZM500.65,494.33l-15.9-4.39c-.38-.11-.59-.49-.49-.87s.49-.61.87-.51l15.9,4.39c.38.11.59.49.49.87-.08.38-.49.61-.87.51ZM501.41,491.58l-15.9-4.39c-.38-.11-.59-.49-.49-.87.11-.38.49-.61.87-.51l15.9,4.39c.38.11.59.51.49.87-.11.38-.49.61-.87.51ZM502.17,488.84l-15.9-4.39c-.38-.08-.61-.49-.51-.87.11-.38.51-.59.89-.49l15.9,4.37c.38.11.59.51.49.89-.11.38-.49.59-.87.49ZM502.99,485.82l-15.9-4.37c-.38-.11-.59-.51-.49-.89.11-.38.49-.59.87-.49l15.9,4.39c.38.08.59.49.51.87-.11.38-.51.59-.89.49ZM504.7,482.31c-.11.38-.51.61-.89.51l-15.88-4.39c-.38-.11-.61-.51-.51-.87.11-.38.51-.61.89-.51l15.88,4.39c.38.11.61.49.51.87ZM505.46,479.57c-.11.38-.51.61-.89.51l-15.9-4.39c-.36-.11-.59-.49-.49-.87.11-.38.49-.61.87-.51l15.9,4.39c.38.11.61.49.51.87ZM496.26,458.76l-10.86-3c1.31,3.02,1.75,6.59,1.1,10.73v.04c-2.83,11.15-7.92,29.23-10.48,38.08-.76,1.99-2.15,3.82-3.29,5.72-6.97,11.17-12.44,23.87-15.84,36.79-3.59,13.45-4.9,26.82-4.44,40.13.04,1.77-.06,3.23-.53,4.98-1.48,5.43-4.35,15.71-6.19,22.43-1.88,9.17-7.29,16.71-16.71,17.36-3.1.23-5.93-.44-8.87-1.31-3.74-1.01-10.52-2.89-14.66-4.03-12.42-2.3-19.24-12.29-15.12-25.11,1.75-6.36,6.36-23.06,8.74-31.72.63-2.37.95-3.42,1.88-5.11,11.07-18.21,18.18-39.81,19.64-61.08.34-4.05.3-8.22.44-12.23.06-1.88.89-4.27,1.48-6.55,2.18-7.81,5.72-20.74,7.88-28.51.93-3.78,2.05-6.97,4.14-9.78-4.12,2.13-7.37,5.91-8.7,10.73l-43.87,159.03c-2.56,9.21,2.89,18.78,12.1,21.31l49.04,13.54c9.23,2.53,18.78-2.89,21.33-12.1l43.87-159.01c2.56-9.21-2.87-18.78-12.1-21.33ZM488.65,535.11c-.53,1.9-2.47,3-4.37,2.49l-7.94-2.2c-1.9-.53-3-2.49-2.49-4.37.53-1.9,2.49-3,4.37-2.49l7.96,2.2c1.88.53,3,2.49,2.47,4.37ZM500.65,494.33l-15.9-4.39c-.38-.11-.59-.49-.49-.87s.49-.61.87-.51l15.9,4.39c.38.11.59.49.49.87-.08.38-.49.61-.87.51ZM501.41,491.58l-15.9-4.39c-.38-.11-.59-.49-.49-.87.11-.38.49-.61.87-.51l15.9,4.39c.38.11.59.51.49.87-.11.38-.49.61-.87.51ZM502.17,488.84l-15.9-4.39c-.38-.08-.61-.49-.51-.87.11-.38.51-.59.89-.49l15.9,4.37c.38.11.59.51.49.89-.11.38-.49.59-.87.49ZM502.99,485.82l-15.9-4.37c-.38-.11-.59-.51-.49-.89.11-.38.49-.59.87-.49l15.9,4.39c.38.08.59.49.51.87-.11.38-.51.59-.89.49ZM504.7,482.31c-.11.38-.51.61-.89.51l-15.88-4.39c-.38-.11-.61-.51-.51-.87.11-.38.51-.61.89-.51l15.88,4.39c.38.11.61.49.51.87ZM505.46,479.57c-.11.38-.51.61-.89.51l-15.9-4.39c-.36-.11-.59-.49-.49-.87.11-.38.49-.61.87-.51l15.9,4.39c.38.11.61.49.51.87ZM496.26,458.76l-10.86-3c1.31,3.02,1.75,6.59,1.1,10.73v.04c-2.83,11.15-7.92,29.23-10.48,38.08-.76,1.99-2.15,3.82-3.29,5.72-6.97,11.17-12.44,23.87-15.84,36.79-3.59,13.45-4.9,26.82-4.44,40.13.04,1.77-.06,3.23-.53,4.98-1.48,5.43-4.35,15.71-6.19,22.43-1.88,9.17-7.29,16.71-16.71,17.36-3.1.23-5.93-.44-8.87-1.31-3.74-1.01-10.52-2.89-14.66-4.03-12.42-2.3-19.24-12.29-15.12-25.11,1.75-6.36,6.36-23.06,8.74-31.72.63-2.37.95-3.42,1.88-5.11,11.07-18.21,18.18-39.81,19.64-61.08.34-4.05.3-8.22.44-12.23.06-1.88.89-4.27,1.48-6.55,2.18-7.81,5.72-20.74,7.88-28.51.93-3.78,2.05-6.97,4.14-9.78-4.12,2.13-7.37,5.91-8.7,10.73l-43.87,159.03c-2.56,9.21,2.89,18.78,12.1,21.31l49.04,13.54c9.23,2.53,18.78-2.89,21.33-12.1l43.87-159.01c2.56-9.21-2.87-18.78-12.1-21.33ZM488.65,535.11c-.53,1.9-2.47,3-4.37,2.49l-7.94-2.2c-1.9-.53-3-2.49-2.49-4.37.53-1.9,2.49-3,4.37-2.49l7.96,2.2c1.88.53,3,2.49,2.47,4.37ZM500.65,494.33l-15.9-4.39c-.38-.11-.59-.49-.49-.87s.49-.61.87-.51l15.9,4.39c.38.11.59.49.49.87-.08.38-.49.61-.87.51ZM501.41,491.58l-15.9-4.39c-.38-.11-.59-.49-.49-.87.11-.38.49-.61.87-.51l15.9,4.39c.38.11.59.51.49.87-.11.38-.49.61-.87.51ZM502.17,488.84l-15.9-4.39c-.38-.08-.61-.49-.51-.87.11-.38.51-.59.89-.49l15.9,4.37c.38.11.59.51.49.89-.11.38-.49.59-.87.49ZM502.99,485.82l-15.9-4.37c-.38-.11-.59-.51-.49-.89.11-.38.49-.59.87-.49l15.9,4.39c.38.08.59.49.51.87-.11.38-.51.59-.89.49ZM504.7,482.31c-.11.38-.51.61-.89.51l-15.88-4.39c-.38-.11-.61-.51-.51-.87.11-.38.51-.61.89-.51l15.88,4.39c.38.11.61.49.51.87ZM505.46,479.57c-.11.38-.51.61-.89.51l-15.9-4.39c-.36-.11-.59-.49-.49-.87.11-.38.49-.61.87-.51l15.9,4.39c.38.11.61.49.51.87ZM496.26,458.76l-10.86-3c1.31,3.02,1.75,6.59,1.1,10.73v.04c-2.83,11.15-7.92,29.23-10.48,38.08-.76,1.99-2.15,3.82-3.29,5.72-6.97,11.17-12.44,23.87-15.84,36.79-3.59,13.45-4.9,26.82-4.44,40.13.04,1.77-.06,3.23-.53,4.98-1.48,5.43-4.35,15.71-6.19,22.43-1.88,9.17-7.29,16.71-16.71,17.36-3.1.23-5.93-.44-8.87-1.31-3.74-1.01-10.52-2.89-14.66-4.03-12.42-2.3-19.24-12.29-15.12-25.11,1.75-6.36,6.36-23.06,8.74-31.72.63-2.37.95-3.42,1.88-5.11,11.07-18.21,18.18-39.81,19.64-61.08.34-4.05.3-8.22.44-12.23.06-1.88.89-4.27,1.48-6.55,2.18-7.81,5.72-20.74,7.88-28.51.93-3.78,2.05-6.97,4.14-9.78-4.12,2.13-7.37,5.91-8.7,10.73l-43.87,159.03c-2.56,9.21,2.89,18.78,12.1,21.31l49.04,13.54c9.23,2.53,18.78-2.89,21.33-12.1l43.87-159.01c2.56-9.21-2.87-18.78-12.1-21.33ZM488.65,535.11c-.53,1.9-2.47,3-4.37,2.49l-7.94-2.2c-1.9-.53-3-2.49-2.49-4.37.53-1.9,2.49-3,4.37-2.49l7.96,2.2c1.88.53,3,2.49,2.47,4.37ZM500.65,494.33l-15.9-4.39c-.38-.11-.59-.49-.49-.87s.49-.61.87-.51l15.9,4.39c.38.11.59.49.49.87-.08.38-.49.61-.87.51ZM501.41,491.58l-15.9-4.39c-.38-.11-.59-.49-.49-.87.11-.38.49-.61.87-.51l15.9,4.39c.38.11.59.51.49.87-.11.38-.49.61-.87.51ZM502.17,488.84l-15.9-4.39c-.38-.08-.61-.49-.51-.87.11-.38.51-.59.89-.49l15.9,4.37c.38.11.59.51.49.89-.11.38-.49.59-.87.49ZM502.99,485.82l-15.9-4.37c-.38-.11-.59-.51-.49-.89.11-.38.49-.59.87-.49l15.9,4.39c.38.08.59.49.51.87-.11.38-.51.59-.89.49ZM504.7,482.31c-.11.38-.51.61-.89.51l-15.88-4.39c-.38-.11-.61-.51-.51-.87.11-.38.51-.61.89-.51l15.88,4.39c.38.11.61.49.51.87ZM505.46,479.57c-.11.38-.51.61-.89.51l-15.9-4.39c-.36-.11-.59-.49-.49-.87.11-.38.49-.61.87-.51l15.9,4.39c.38.11.61.49.51.87ZM496.26,458.76l-10.86-3c1.31,3.02,1.75,6.59,1.1,10.73v.04c-2.83,11.15-7.92,29.23-10.48,38.08-.76,1.99-2.15,3.82-3.29,5.72-6.97,11.17-12.44,23.87-15.84,36.79-3.59,13.45-4.9,26.82-4.44,40.13.04,1.77-.06,3.23-.53,4.98-1.48,5.43-4.35,15.71-6.19,22.43-1.88,9.17-7.29,16.71-16.71,17.36-3.1.23-5.93-.44-8.87-1.31-3.74-1.01-10.52-2.89-14.66-4.03-12.42-2.3-19.24-12.29-15.12-25.11,1.75-6.36,6.36-23.06,8.74-31.72.63-2.37.95-3.42,1.88-5.11,11.07-18.21,18.18-39.81,19.64-61.08.34-4.05.3-8.22.44-12.23.06-1.88.89-4.27,1.48-6.55,2.18-7.81,5.72-20.74,7.88-28.51.93-3.78,2.05-6.97,4.14-9.78-4.12,2.13-7.37,5.91-8.7,10.73l-43.87,159.03c-2.56,9.21,2.89,18.78,12.1,21.31l49.04,13.54c9.23,2.53,18.78-2.89,21.33-12.1l43.87-159.01c2.56-9.21-2.87-18.78-12.1-21.33ZM488.65,535.11c-.53,1.9-2.47,3-4.37,2.49l-7.94-2.2c-1.9-.53-3-2.49-2.49-4.37.53-1.9,2.49-3,4.37-2.49l7.96,2.2c1.88.53,3,2.49,2.47,4.37ZM500.65,494.33l-15.9-4.39c-.38-.11-.59-.49-.49-.87s.49-.61.87-.51l15.9,4.39c.38.11.59.49.49.87-.08.38-.49.61-.87.51ZM501.41,491.58l-15.9-4.39c-.38-.11-.59-.49-.49-.87.11-.38.49-.61.87-.51l15.9,4.39c.38.11.59.51.49.87-.11.38-.49.61-.87.51ZM502.17,488.84l-15.9-4.39c-.38-.08-.61-.49-.51-.87.11-.38.51-.59.89-.49l15.9,4.37c.38.11.59.51.49.89-.11.38-.49.59-.87.49ZM502.99,485.82l-15.9-4.37c-.38-.11-.59-.51-.49-.89.11-.38.49-.59.87-.49l15.9,4.39c.38.08.59.49.51.87-.11.38-.51.59-.89.49ZM504.7,482.31c-.11.38-.51.61-.89.51l-15.88-4.39c-.38-.11-.61-.51-.51-.87.11-.38.51-.61.89-.51l15.88,4.39c.38.11.61.49.51.87ZM505.46,479.57c-.11.38-.51.61-.89.51l-15.9-4.39c-.36-.11-.59-.49-.49-.87.11-.38.49-.61.87-.51l15.9,4.39c.38.11.61.49.51.87ZM496.26,458.76l-10.86-3c1.31,3.02,1.75,6.59,1.1,10.73v.04c-2.83,11.15-7.92,29.23-10.48,38.08-.76,1.99-2.15,3.82-3.29,5.72-6.97,11.17-12.44,23.87-15.84,36.79-3.59,13.45-4.9,26.82-4.44,40.13.04,1.77-.06,3.23-.53,4.98-1.48,5.43-4.35,15.71-6.19,22.43-1.88,9.17-7.29,16.71-16.71,17.36-3.1.23-5.93-.44-8.87-1.31-3.74-1.01-10.52-2.89-14.66-4.03-12.42-2.3-19.24-12.29-15.12-25.11,1.75-6.36,6.36-23.06,8.74-31.72.63-2.37.95-3.42,1.88-5.11,11.07-18.21,18.18-39.81,19.64-61.08.34-4.05.3-8.22.44-12.23.06-1.88.89-4.27,1.48-6.55,2.18-7.81,5.72-20.74,7.88-28.51.93-3.78,2.05-6.97,4.14-9.78-4.12,2.13-7.37,5.91-8.7,10.73l-43.87,159.03c-2.56,9.21,2.89,18.78,12.1,21.31l49.04,13.54c9.23,2.53,18.78-2.89,21.33-12.1l43.87-159.01c2.56-9.21-2.87-18.78-12.1-21.33ZM488.65,535.11c-.53,1.9-2.47,3-4.37,2.49l-7.94-2.2c-1.9-.53-3-2.49-2.49-4.37.53-1.9,2.49-3,4.37-2.49l7.96,2.2c1.88.53,3,2.49,2.47,4.37ZM500.65,494.33l-15.9-4.39c-.38-.11-.59-.49-.49-.87s.49-.61.87-.51l15.9,4.39c.38.11.59.49.49.87-.08.38-.49.61-.87.51ZM501.41,491.58l-15.9-4.39c-.38-.11-.59-.49-.49-.87.11-.38.49-.61.87-.51l15.9,4.39c.38.11.59.51.49.87-.11.38-.49.61-.87.51ZM502.17,488.84l-15.9-4.39c-.38-.08-.61-.49-.51-.87.11-.38.51-.59.89-.49l15.9,4.37c.38.11.59.51.49.89-.11.38-.49.59-.87.49ZM502.99,485.82l-15.9-4.37c-.38-.11-.59-.51-.49-.89.11-.38.49-.59.87-.49l15.9,4.39c.38.08.59.49.51.87-.11.38-.51.59-.89.49ZM504.7,482.31c-.11.38-.51.61-.89.51l-15.88-4.39c-.38-.11-.61-.51-.51-.87.11-.38.51-.61.89-.51l15.88,4.39c.38.11.61.49.51.87ZM505.46,479.57c-.11.38-.51.61-.89.51l-15.9-4.39c-.36-.11-.59-.49-.49-.87.11-.38.49-.61.87-.51l15.9,4.39c.38.11.61.49.51.87ZM496.26,458.76l-10.86-3c1.31,3.02,1.75,6.59,1.1,10.73v.04c-2.83,11.15-7.92,29.23-10.48,38.08-.76,1.99-2.15,3.82-3.29,5.72-6.97,11.17-12.44,23.87-15.84,36.79-3.59,13.45-4.9,26.82-4.44,40.13.04,1.77-.06,3.23-.53,4.98-1.48,5.43-4.35,15.71-6.19,22.43-1.88,9.17-7.29,16.71-16.71,17.36-3.1.23-5.93-.44-8.87-1.31-3.74-1.01-10.52-2.89-14.66-4.03-12.42-2.3-19.24-12.29-15.12-25.11,1.75-6.36,6.36-23.06,8.74-31.72.63-2.37.95-3.42,1.88-5.11,11.07-18.21,18.18-39.81,19.64-61.08.34-4.05.3-8.22.44-12.23.06-1.88.89-4.27,1.48-6.55,2.18-7.81,5.72-20.74,7.88-28.51.93-3.78,2.05-6.97,4.14-9.78-4.12,2.13-7.37,5.91-8.7,10.73l-43.87,159.03c-2.56,9.21,2.89,18.78,12.1,21.31l49.04,13.54c9.23,2.53,18.78-2.89,21.33-12.1l43.87-159.01c2.56-9.21-2.87-18.78-12.1-21.33ZM488.65,535.11c-.53,1.9-2.47,3-4.37,2.49l-7.94-2.2c-1.9-.53-3-2.49-2.49-4.37.53-1.9,2.49-3,4.37-2.49l7.96,2.2c1.88.53,3,2.49,2.47,4.37ZM500.65,494.33l-15.9-4.39c-.38-.11-.59-.49-.49-.87s.49-.61.87-.51l15.9,4.39c.38.11.59.49.49.87-.08.38-.49.61-.87.51ZM501.41,491.58l-15.9-4.39c-.38-.11-.59-.49-.49-.87.11-.38.49-.61.87-.51l15.9,4.39c.38.11.59.51.49.87-.11.38-.49.61-.87.51ZM502.17,488.84l-15.9-4.39c-.38-.08-.61-.49-.51-.87.11-.38.51-.59.89-.49l15.9,4.37c.38.11.59.51.49.89-.11.38-.49.59-.87.49ZM502.99,485.82l-15.9-4.37c-.38-.11-.59-.51-.49-.89.11-.38.49-.59.87-.49l15.9,4.39c.38.08.59.49.51.87-.11.38-.51.59-.89.49ZM504.7,482.31c-.11.38-.51.61-.89.51l-15.88-4.39c-.38-.11-.61-.51-.51-.87.11-.38.51-.61.89-.51l15.88,4.39c.38.11.61.49.51.87ZM505.46,479.57c-.11.38-.51.61-.89.51l-15.9-4.39c-.36-.11-.59-.49-.49-.87.11-.38.49-.61.87-.51l15.9,4.39c.38.11.61.49.51.87ZM496.26,458.76l-10.86-3c1.31,3.02,1.75,6.59,1.1,10.73v.04c-2.83,11.15-7.92,29.23-10.48,38.08-.76,1.99-2.15,3.82-3.29,5.72-6.97,11.17-12.44,23.87-15.84,36.79-3.59,13.45-4.9,26.82-4.44,40.13.04,1.77-.06,3.23-.53,4.98-1.48,5.43-4.35,15.71-6.19,22.43-1.88,9.17-7.29,16.71-16.71,17.36-3.1.23-5.93-.44-8.87-1.31-3.74-1.01-10.52-2.89-14.66-4.03-12.42-2.3-19.24-12.29-15.12-25.11,1.75-6.36,6.36-23.06,8.74-31.72.63-2.37.95-3.42,1.88-5.11,11.07-18.21,18.18-39.81,19.64-61.08.34-4.05.3-8.22.44-12.23.06-1.88.89-4.27,1.48-6.55,2.18-7.81,5.72-20.74,7.88-28.51.93-3.78,2.05-6.97,4.14-9.78-4.12,2.13-7.37,5.91-8.7,10.73l-43.87,159.03c-2.56,9.21,2.89,18.78,12.1,21.31l49.04,13.54c9.23,2.53,18.78-2.89,21.33-12.1l43.87-159.01c2.56-9.21-2.87-18.78-12.1-21.33ZM488.65,535.11c-.53,1.9-2.47,3-4.37,2.49l-7.94-2.2c-1.9-.53-3-2.49-2.49-4.37.53-1.9,2.49-3,4.37-2.49l7.96,2.2c1.88.53,3,2.49,2.47,4.37ZM500.65,494.33l-15.9-4.39c-.38-.11-.59-.49-.49-.87s.49-.61.87-.51l15.9,4.39c.38.11.59.49.49.87-.08.38-.49.61-.87.51ZM501.41,491.58l-15.9-4.39c-.38-.11-.59-.49-.49-.87.11-.38.49-.61.87-.51l15.9,4.39c.38.11.59.51.49.87-.11.38-.49.61-.87.51ZM502.17,488.84l-15.9-4.39c-.38-.08-.61-.49-.51-.87.11-.38.51-.59.89-.49l15.9,4.37c.38.11.59.51.49.89-.11.38-.49.59-.87.49ZM502.99,485.82l-15.9-4.37c-.38-.11-.59-.51-.49-.89.11-.38.49-.59.87-.49l15.9,4.39c.38.08.59.49.51.87-.11.38-.51.59-.89.49ZM504.7,482.31c-.11.38-.51.61-.89.51l-15.88-4.39c-.38-.11-.61-.51-.51-.87.11-.38.51-.61.89-.51l15.88,4.39c.38.11.61.49.51.87ZM505.46,479.57c-.11.38-.51.61-.89.51l-15.9-4.39c-.36-.11-.59-.49-.49-.87.11-.38.49-.61.87-.51l15.9,4.39c.38.11.61.49.51.87Z" style="fill: #7381c6;"/>
    </g>
  </g>
</svg>