<?xml version="1.0" encoding="UTF-8"?>
<svg id="b" data-name="Слой 2" xmlns="http://www.w3.org/2000/svg" viewBox="0 0 751.88 690.05">
  <g id="c" data-name="Слой 1">
    <path d="M587.88,212.06c24.67-.17,49.34,0,74,.5,10.17,2.51,15.67,9.01,16.5,19.5.67,17.67.67,35.33,0,53-2.5,7.83-7.67,13-15.5,15.5-25.33.67-50.67.67-76,0-9.14-2.81-14.31-8.98-15.5-18.5-.67-16.33-.67-32.67,0-49,1.24-10.4,6.74-17.4,16.5-21Z" style="fill: #010101; fill-rule: evenodd;"/>
    <path d="M751.38,51.06c-4.28-29.95-21.45-46.78-51.5-50.5C548.21.06,396.55-.1,244.88.06c-25.49,4.99-40.99,20.33-46.5,46-1.14,80.98-1.98,161.98-2.5,243-14.99,7.49-29.33,15.99-43,25.5-27.7,27.36-55.03,55.03-82,83-8.83,7.5-17.67,15-26.5,22.5-13.92-8.67-27.25-8-40,2-6.58,8.94-5.75,17.11,2.5,24.5,5.56,1.74,11.23,3.07,17,4,3.16,1.41,6.16,3.08,9,5,56.14,58.47,112.64,116.64,169.5,174.5,2.42,2.94,3.42,6.27,3,10-6,6.67-12,13.33-18,20-5.06,7.29-5.72,14.96-2,23,7.92,8.78,16.42,9.28,25.5,1.5,9.57-8.9,18.4-18.4,26.5-28.5,8.74-14.73,8.57-29.23-.5-43.5.6-1.6,1.6-2.94,3-4,3.55-1.94,7.21-3.61,11-5,56.67,1.47,113.34,3.47,170,6,37.78,4.43,72.78-3.23,105-23,18.87-12.94,37.2-26.6,55-41,22-20.67,44-41.33,66-62,15.32-14.65,29.16-30.48,41.5-47.5,2.79-5.03,4.79-10.37,6-16,2.76-14.14-.08-26.97-8.5-38.5,7.04-.76,14.04-1.76,21-3,25.92-7.59,40.76-24.76,44.5-51.5.67-92,.67-184,0-276ZM236.38,49.06c2.51-5.68,6.67-9.35,12.5-11,150.33-.17,300.67,0,451,.5,5.29,1.22,9.46,4.06,12.5,8.5,1.59,10.26,1.93,20.59,1,31-159.76,1-319.6,1.33-479.5,1-.54-10.14.29-20.14,2.5-30ZM652.38,424.06c-36.64,39.98-75.81,77.15-117.5,111.5-15.19,11.52-31.19,21.85-48,31-12.78,4.45-25.95,6.95-39.5,7.5-65.83-2.93-131.66-5.43-197.5-7.5-14.75,2.29-27.58,8.46-38.5,18.5-45.68-46.18-91.18-92.51-136.5-139,33.46-33.96,67.13-67.79,101-101.5,11.19-9.43,23.52-17.1,37-23,7.5-2.43,15.17-4.1,23-5,58.17-.17,116.17-.67,174-1.5,8.15-.42,16.15.41,24,2.5,5.2,2.55,8.37,6.72,9.5,12.5.82,10.55-2.18,19.88-9,28-11.58,14.04-26.41,22.21-44.5,24.5-26.33.33-52.67.67-79,1-20.09,3.93-30.76,16.09-32,36.5.99,22.5,12.33,36.67,34,42.5,40.22,8.22,80.56,15.89,121,23,37.25,3.28,72.25-4.05,105-22,28.03-17.36,54.36-37.02,79-59,6.04-5.02,12.7-9.02,20-12,9.82-1.2,16.32,2.96,19.5,12.5,1.77,7.29.1,13.62-5,19ZM463.88,380.06c42.01-.33,84.01,0,126,1-26.94,25.42-57.27,45.92-91,61.5-21.61,6.4-43.61,8.4-66,6-32-5.67-64-11.33-96-17-6.17-1.06-12.17-2.72-18-5-2.86-1.79-3.53-4.12-2-7h70c31.51-2.09,57.17-15.25,77-39.5ZM713.38,328.06c-2.48,8.8-8.31,13.64-17.5,14.5-72.35.82-144.68.65-217-.5,3.28-28.27-8.05-48.11-34-59.5-4.6-1.32-9.27-2.32-14-3-65.67-.5-131.33-.67-197-.5v-122h480c.17,57,0,114-.5,171Z" style="fill-rule: evenodd;"/>
  </g>
</svg>