<?xml version="1.0" encoding="UTF-8"?>
<svg id="b" data-name="Слой 2" xmlns="http://www.w3.org/2000/svg" viewBox="0 0 835.83 835.5">
  <g id="c" data-name="Слой 1">
    <path d="M834.6,493.51c-5.8-59.82-33.64-105.99-83.5-138.5-28.21-16.3-58.21-28.3-90-36-6.31-1.9-12.14-4.74-17.5-8.5,17.02-58.95,21.69-118.95,14-180-5.78-39.07-23.61-71.24-53.5-96.5C568.99,8.56,529.65-2.61,486.1.51c-46.57,4.02-82.73,25.35-108.5,64-16.16-2.27-32.33-2.43-48.5-.5-24.11,10.13-37.61,28.3-40.5,54.5-.67,54-.67,108,0,162,2.09,23.73,4.76,47.4,8,71,5.88,40.54,29.04,63.71,69.5,69.5,12.15,6.49,23.49,14.16,34,23,27.59,24.93,55.76,49.09,84.5,72.5,31.38-12.28,61.54-9.78,90.5,7.5,22,2.73,44,5.07,66,7,5.64-23.92,12.3-47.59,20-71,.41-.95,1.07-1.61,2-2,12.08-.58,17.24,5.25,15.5,17.5-6.34,28.68-12.67,57.35-19,86-.75.63-1.58,1.13-2.5,1.5-17.38.03-34.71-.97-52-3-13.97-1.27-27.64-3.94-41-8-24.22-17.61-49.22-18.94-75-4-2.91,1.32-5.91,1.65-9,1-11.92-10.91-23.58-22.25-35-34-6.86-2.31-13.36-1.48-19.5,2.5-19.22-19.22-38.39-38.39-57.5-57.5-20.39-13.65-41.05-13.98-62-1-26.41,23.41-51.91,47.91-76.5,73.5,1,3.67,2,7.33,3,11-12.39,9.78-25.23,18.95-38.5,27.5-.81,8.18,2.69,14.02,10.5,17.5,15.38-8.86,29.71-19.19,43-31,1.86,1.91,4.02,2.74,6.5,2.5,24.37-22.7,49.03-45.04,74-67,2.14-1.4,4.47-2.24,7-2.5,3.87.93,7.54,2.43,11,4.5,17.11,15.1,33.61,30.94,49.5,47.5-2.17,5.22-4,10.72-5.5,16.5.57,3.38,1.74,6.55,3.5,9.5,11.71,11.21,23.54,22.21,35.5,33-6.03,6.11-12.2,12.11-18.5,18-4.52,6.52-5.52,13.52-3,21,5.99,11.11,14.83,14.28,26.5,9.5,16.21-11.61,31.88-23.94,47-37,1.61-.09,2.78.74,3.5,2.5,1.88,3.37,1.88,6.7,0,10-13.93,11.26-27.26,23.26-40,36l-3,6c-.2,18.79,8.97,26.29,27.5,22.5,6.17-3.92,12.17-8.09,18-12.5,2.33,3,5,5.67,8,8-5.26,4.55-10.43,9.22-15.5,14-3.71,5.32-4.37,10.98-2,17,6.98,12.08,17.15,16.24,30.5,12.5,11-7.67,22-15.33,33-23,3.83-2.75,7.83-3.09,12-1,21,19.67,41.33,40,61,61,4.77,4.01,10.1,5.84,16,5.5,8.41,9.57,16.24,19.57,23.5,30,3.98,6.94,6.98,14.28,9,22,1.78,3.44,3.94,6.61,6.5,9.5,8.6,4.01,16.6,3.17,24-2.5,1.16-3.62,1.33-7.29.5-11-10.58-24.85-24.91-47.18-43-67,.43-3.95.43-7.95,0-12-11.1-13.1-22.93-25.6-35.5-37.5,8.57-6.03,17.73-10.86,27.5-14.5,26.76,7.4,53.6,14.57,80.5,21.5,50.89,11.06,84.05-8.11,99.5-57.5,11.49-52.43,15.49-105.43,12-159ZM577.6,315.51c-12.25,51.24-44.75,78.07-97.5,80.5-38,.75-76,1.09-114,1-19.38-5.05-32.88-16.88-40.5-35.5-7.13-33.64-11.3-67.64-12.5-102,68.04.48,136.04-.02,204-1.5,4.56-1.63,7.4-4.79,8.5-9.5.67-23.33.67-46.67,0-70-1.93-4.93-5.43-8.09-10.5-9.5-67.33-.5-134.67-.67-202-.5-.17-15.67,0-31.34.5-47,3.54-17.36,13.7-28.36,30.5-33,63-.17,126,0,189,.5,27.21,5.89,42.38,22.72,45.5,50.5.97,58.69.64,117.36-1,176Z" style="fill-rule: evenodd;"/>
    <path d="M10.58,192.47c4.42-1.88,9.56-2.12,14.37-1.99,13.74.23,27.07,2.26,28.22,18.07,1.95,94.2-.05,188.63,1.28,282.82.59,4.61,2.25,8.37,5.38,11,6.16,4.96,14.81,5.65,22.26,7.8,7.18,1.39,14.85,5.17,20,1.34,3.59-4.53-.06-11.93-1.4-17.05-5.31-16.06-10.61-32.07-15.64-48.26-2.33-6.25-5.15-22.89,6.24-18.52,4.35,2.1,7.87,6.69,10.69,10.74,9.69,14.21,19.41,28.46,29.25,42.56,7.91,11.77,12.46,11.5,16.95-2.1,8.73-24.98,17.11-50.14,25.53-75.25,1.8-6.79,10.65-20.24,14.9-7.56,1.03,3.46.96,7.86.7,11.69-2.29,28.65-4.81,57.29-6.9,85.96.01,4.99-2.4,17.85,5.42,16.75,4.61-.8,12.61-7.64,18.13-11.46,11.35-8.18,22.72-16.35,34.32-24.17,15.79-10.21,19.13-2.3,7.56,9.75-9.4,9.9-18.96,19.63-27.85,29.94-6.35,7.72-11.55,16-18.51,23.16-6.89,7.24-15.6,13.16-20.82,21.88-7.59,11.67-5.94,27.08,4.13,37.03,11.51,11.71,27.67,17.9,42.41,7.73,6.43-3.91,10.64-10.17,16.25-14.87,6.39-5.33,15.48-3.36,22.8-.74,14.21,5,28.43,10.05,42.63,15.07,3.9,1.39,8.37,3.14,11.5,5.54,9.45,7.88-8.34,8.47-13.4,7.91-22.75-1.03-45.47-2.96-68.14-5.05-3.12-.15-7.49-.34-9.71,1.23-3.91,3.25,1.02,9.25,3.16,12.76,13.86,19.62,27.97,39.19,41.81,58.88,2.02,2.99,4.13,6.36,5.16,9.63,1.69,4.92.31,9.46-5.5,8.21-5.47-1.28-10.59-5.98-14.82-9.83-18.69-17.24-37.77-34.01-57.54-49.91-4-3.06-10.34-7.56-13.27-1.3-1.14,2.24-1.7,5.62-2.1,8.4-2.27,17.84-3.96,35.86-5.25,53.86,0,5.89-3.72,23.79-10.99,12.98-1.67-2.86-2.63-6.83-3.26-10.32-3.33-21.69-7.32-43.27-12.6-64.56-1.1-3.92-2.27-9.91-5.86-11.73-4.92-1.64-9.32,4.41-12.63,7.59-10.81,11.58-20.92,23.7-30.96,35.91-3.38,4.6-18.12,19.53-19.56,7.42-.07-4.18,1.95-8.96,3.73-12.91,7.58-16.31,15.33-32.5,23.13-48.7,14.77-29.02-9.57-18.22-26.79-13.51-14.25,4.32-29.79,5.31-29.96,23.77-.78,56.31-1.13,112.63-2.28,168.9-.13,7.39-1.88,15.86-8.99,19.05-6.25,3.04-15.73,2.7-23.33,2.48-11.03-.22-18.96-5.28-19.54-17.42C-.22,604.85-.4,406.52.96,208.33c.7-7.2,3.28-13.08,9.47-15.78l.16-.07Z" style="fill: #010101; fill-rule: evenodd;"/>
    <path d="M24.1,504.51c2.03-.16,4.03,0,6,.5,11.75,4.47,23.41,9.14,35,14,15.79,11.96,31.13,24.46,46,37.5-28.12,21.95-56.95,42.95-86.5,63-3.55-.72-6.05-2.72-7.5-6,12.55-11.88,25.05-23.88,37.5-36,.67-13.67.67-27.33,0-41-11.51-7.42-22.84-15.09-34-23-.67-1.67-.67-3.33,0-5,1.38-1.21,2.54-2.54,3.5-4Z" style="fill: #fcfcfc; fill-rule: evenodd;"/>
  </g>
</svg>